<svg width="117" height="100" viewBox="0 0 117 100" fill="none" xmlns="http://www.w3.org/2000/svg">
<path d="M71.7439 46.0293C71.7439 47.6771 70.4097 49.0168 68.763 49.0168C67.1162 49.0168 65.7773 47.6817 65.7773 46.0293C65.7773 44.3768 67.1115 43.0371 68.763 43.0371C70.4097 43.0371 71.7486 44.3721 71.7486 46.0246L71.7439 46.0293Z" fill="#E4032E"/>
<path d="M68.7608 43.4858C67.3567 43.4858 66.2184 44.6294 66.2184 46.0345C66.2184 47.4395 67.3613 48.5832 68.7655 48.5832C69.4466 48.5832 70.0857 48.3171 70.5662 47.8363C71.0467 47.3555 71.3079 46.716 71.3079 46.0345C71.3079 45.3529 71.042 44.7134 70.5615 44.2326C70.081 43.7518 69.4419 43.4858 68.7655 43.4858H68.7608ZM68.7608 49.4608C66.8715 49.4608 65.3367 47.925 65.332 46.0345C65.332 44.1439 66.8668 42.6035 68.7562 42.6035C69.6705 42.6035 70.5289 42.9583 71.1773 43.6071C71.8258 44.256 72.1803 45.1149 72.1803 46.0298C72.1803 46.9447 71.8258 47.8083 71.1773 48.4571C70.5289 49.106 69.6705 49.4608 68.7562 49.4608H68.7608Z" fill="#E4032E"/>
<path d="M82.5025 46.0293C82.5025 47.6771 81.1683 49.0168 79.5169 49.0168C77.8701 49.0168 76.5312 47.6817 76.5312 46.0293C76.5312 44.3768 77.8654 43.0371 79.5169 43.0371C81.1636 43.0371 82.5025 44.3721 82.5025 46.0246V46.0293Z" fill="#212325"/>
<path d="M79.514 43.4858C78.1098 43.4858 76.9715 44.6294 76.9715 46.0345C76.9715 47.4395 78.1145 48.5832 79.5187 48.5832C80.9228 48.5832 82.0611 47.4395 82.0611 46.0345C82.0611 45.3529 81.7952 44.7134 81.3147 44.2326C80.8342 43.7518 80.1951 43.4858 79.514 43.4858ZM79.514 49.4608C77.6246 49.4608 76.0898 47.925 76.0898 46.0345C76.0898 44.1439 77.6246 42.6035 79.514 42.6035C80.4283 42.6035 81.2867 42.9583 81.9351 43.6071C82.5836 44.256 82.9381 45.1149 82.9381 46.0298C82.9381 47.9203 81.4033 49.4608 79.514 49.4608Z" fill="#212325"/>
<path d="M82.5025 33.8644C82.5025 35.5122 81.1683 36.8519 79.5169 36.8519C77.8701 36.8519 76.5312 35.5169 76.5312 33.8691C76.5312 32.2167 77.8654 30.8816 79.5169 30.877C81.1636 30.877 82.5025 32.212 82.5025 33.8644Z" fill="#E4032E"/>
<path d="M79.514 31.3158C78.1098 31.3158 76.9715 32.4595 76.9715 33.8645C76.9715 34.5461 77.2374 35.1856 77.7179 35.6664C78.1984 36.1472 78.8376 36.4133 79.5187 36.4133C80.9228 36.4133 82.0611 35.2696 82.0611 33.8645C82.0611 33.183 81.7952 32.5435 81.3147 32.0627C80.8342 31.5819 80.1951 31.3158 79.514 31.3158ZM79.514 37.2908C78.5996 37.2908 77.7413 36.9361 77.0928 36.2872C76.4444 35.6384 76.0898 34.7795 76.0898 33.8645C76.0898 31.974 77.6246 30.4336 79.514 30.4336C80.4283 30.4336 81.2867 30.7884 81.9351 31.4372C82.5836 32.0861 82.9381 32.945 82.9381 33.8599C82.9381 35.7504 81.4033 37.2908 79.514 37.2908Z" fill="#E4032E"/>
<path d="M82.813 70.3633C82.813 72.011 81.4788 73.3508 79.8274 73.3508C78.176 73.3508 76.8418 72.0157 76.8418 70.3633C76.8418 68.7108 78.176 67.3758 79.8274 67.3711C81.4742 67.3711 82.813 68.7061 82.813 70.3586V70.3633Z" fill="#E4032E"/>
<path d="M79.8265 67.8139C78.4223 67.8139 77.284 68.9575 77.284 70.3626C77.284 71.0441 77.5499 71.6836 78.0304 72.1644C78.5109 72.6452 79.1501 72.9113 79.8312 72.9113C81.2353 72.9113 82.3736 71.7677 82.3736 70.3626C82.3736 68.9575 81.2307 67.8139 79.8265 67.8139ZM79.8265 73.7889C78.9121 73.7889 78.0538 73.4341 77.4053 72.7853C76.7569 72.1364 76.4023 71.2775 76.4023 70.3626C76.4023 68.4721 77.9371 66.9316 79.8265 66.9316C81.7158 66.9316 83.2553 68.4674 83.2553 70.3579C83.2553 72.2484 81.7205 73.7889 79.8312 73.7889H79.8265Z" fill="#E4032E"/>
<path d="M82.5025 58.1984C82.5025 59.8462 81.1683 61.1859 79.5169 61.1859C77.8701 61.1859 76.5312 59.8509 76.5312 58.2031C76.5312 56.5506 77.8654 55.2109 79.5169 55.2109C81.1683 55.2109 82.5025 56.546 82.5025 58.1938V58.1984Z" fill="#212325"/>
<path d="M79.514 55.6498C78.1098 55.6498 76.9715 56.7935 76.9715 58.1985C76.9715 58.8801 77.2374 59.5196 77.7179 60.0004C78.1984 60.4812 78.8376 60.7472 79.514 60.7472C80.9182 60.7472 82.0564 59.6036 82.0564 58.1985C82.0564 56.7935 80.9135 55.6498 79.5093 55.6498H79.514ZM79.514 61.6248C78.5996 61.6248 77.7413 61.27 77.0928 60.6212C76.4444 59.9724 76.0898 59.1135 76.0898 58.1985C76.0898 56.308 77.6246 54.7676 79.514 54.7676C81.4033 54.7676 82.9381 56.3033 82.9381 58.1939C82.9381 60.0844 81.4033 61.6248 79.514 61.6248Z" fill="#212325"/>
<path d="M93.2603 46.0293C93.2603 47.6771 91.9261 49.0168 90.2747 49.0168C88.6279 49.0168 87.2891 47.6817 87.2891 46.0293C87.2891 44.3768 88.6233 43.0371 90.2747 43.0371C91.9261 43.0371 93.2603 44.3721 93.2603 46.0246V46.0293Z" fill="#E4032E"/>
<path d="M90.2718 43.4858C89.5907 43.4858 88.9516 43.7518 88.4711 44.2326C87.9906 44.7134 87.7247 45.3529 87.7247 46.0345C87.7247 47.4395 88.8676 48.5832 90.2718 48.5832C91.676 48.5832 92.8142 47.4395 92.8142 46.0345C92.8142 44.6294 91.6713 43.4858 90.2671 43.4858H90.2718ZM90.2718 49.4608C88.3825 49.4608 86.8477 47.925 86.8477 46.0345C86.8477 45.1196 87.2022 44.256 87.8506 43.6071C88.4991 42.9583 89.3574 42.6035 90.2718 42.6035C92.1611 42.6035 93.6959 44.1393 93.6959 46.0298C93.6959 47.9203 92.1611 49.4608 90.2718 49.4608Z" fill="#E4032E"/>
<path d="M60.9908 46.0293C60.9908 47.6771 59.6566 49.0168 58.0052 49.0168C56.3584 49.0168 55.0195 47.6817 55.0195 46.0293C55.0195 44.3768 56.3537 43.0371 58.0052 43.0371C59.6519 43.0371 60.9908 44.3721 60.9908 46.0246V46.0293Z" fill="#212325"/>
<path d="M58.0042 43.4858C57.3231 43.4858 56.684 43.7518 56.2035 44.2326C55.723 44.7134 55.4571 45.3529 55.4571 46.0345C55.4571 47.4395 56.6 48.5832 58.0042 48.5832C59.4084 48.5832 60.5467 47.4395 60.5467 46.0345C60.5467 45.3529 60.2808 44.7134 59.8003 44.2326C59.3198 43.7518 58.6806 43.4858 58.0042 43.4858ZM58.0042 49.4608C56.1149 49.4608 54.5801 47.925 54.5801 46.0345C54.5801 45.1196 54.9346 44.256 55.5831 43.6071C56.2315 42.9583 57.0899 42.6035 58.0042 42.6035C58.9186 42.6035 59.7769 42.9583 60.4254 43.6071C61.0738 44.256 61.4284 45.1149 61.4284 46.0298C61.4284 47.9203 59.8936 49.4608 58.0042 49.4608Z" fill="#212325"/>
<path d="M60.9908 33.8644C60.9908 35.5122 59.6566 36.8519 58.0052 36.8519C56.3584 36.8519 55.0195 35.5169 55.0195 33.8691C55.0195 32.2167 56.3537 30.8816 58.0052 30.877C59.6519 30.877 60.9908 32.212 60.9908 33.8644Z" fill="#212325"/>
<path d="M58.0042 31.3158C56.6 31.3158 55.4618 32.4595 55.4618 33.8645C55.4618 34.5461 55.7277 35.1856 56.2082 35.6664C56.6887 36.1472 57.3278 36.4133 58.0042 36.4133C58.6853 36.4133 59.3244 36.1472 59.8049 35.6664C60.2854 35.1856 60.5513 34.5461 60.5513 33.8645C60.5513 33.183 60.2854 32.5435 59.8049 32.0627C59.3244 31.5819 58.6853 31.3158 58.0042 31.3158ZM58.0042 37.2908C57.0899 37.2908 56.2315 36.9361 55.5831 36.2872C54.9346 35.6384 54.5801 34.7795 54.5801 33.8645C54.5801 31.974 56.1149 30.4336 58.0042 30.4336C58.9186 30.4336 59.7769 30.7884 60.4254 31.4372C61.0738 32.0861 61.4284 32.945 61.4284 33.8599C61.4284 34.7748 61.0738 35.6384 60.4254 36.2872C59.7769 36.9361 58.9186 37.2908 58.0042 37.2908Z" fill="#212325"/>
<path d="M60.9908 21.7004C60.9908 23.3482 59.6566 24.6879 58.0052 24.6879C56.3584 24.6879 55.0195 23.3528 55.0195 21.7004C55.0195 20.0479 56.3537 18.7129 58.0052 18.7129C59.6519 18.7129 60.9908 20.0479 60.9908 21.7004Z" fill="#212325"/>
<path d="M58.0042 19.1518C56.6 19.1518 55.4618 20.2954 55.4618 21.7005C55.4618 22.382 55.7277 23.0215 56.2082 23.5023C56.6887 23.9831 57.3278 24.2492 58.0042 24.2492C58.6853 24.2492 59.3244 23.9831 59.8049 23.5023C60.2854 23.0215 60.5513 22.382 60.5513 21.7005C60.5513 21.019 60.2854 20.3795 59.8049 19.8987C59.3244 19.4179 58.6853 19.1518 58.0042 19.1518ZM58.0042 25.1268C57.0899 25.1268 56.2315 24.772 55.5831 24.1232C54.9346 23.4743 54.5801 22.6154 54.5801 21.7005C54.5801 19.81 56.1149 18.2695 58.0042 18.2695C58.9186 18.2695 59.7769 18.6243 60.4254 19.2731C61.0738 19.922 61.4284 20.7809 61.4284 21.6958C61.4284 22.6107 61.0738 23.4743 60.4254 24.1185C59.7769 24.7673 58.9186 25.1221 58.0042 25.1221V25.1268Z" fill="#212325"/>
<path d="M71.7439 21.7004C71.7439 23.3482 70.4097 24.6879 68.763 24.6879C67.1162 24.6879 65.7773 23.3528 65.7773 21.7004C65.7773 20.0479 67.1115 18.7129 68.763 18.7129C70.4097 18.7129 71.7486 20.0479 71.7486 21.7004H71.7439Z" fill="#212325"/>
<path d="M68.7601 19.1518C67.3559 19.1518 66.2176 20.2954 66.2176 21.7005C66.2176 22.382 66.4835 23.0215 66.964 23.5023C67.4445 23.9831 68.0836 24.2492 68.7601 24.2492C69.4412 24.2492 70.0803 23.9831 70.5608 23.5023C71.0413 23.0215 71.3072 22.382 71.3072 21.7005C71.3072 21.019 71.0413 20.3795 70.5608 19.8987C70.0803 19.4179 69.4412 19.1518 68.7601 19.1518ZM68.7601 25.1268C67.8457 25.1268 66.9874 24.772 66.3389 24.1232C65.6905 23.4743 65.3359 22.6154 65.3359 21.7005C65.3359 19.81 66.8707 18.2695 68.7601 18.2695C69.6744 18.2695 70.5328 18.6243 71.1812 19.2731C71.8297 19.922 72.1842 20.7809 72.1842 21.6958C72.1842 22.6107 71.8297 23.4743 71.1812 24.1185C70.5328 24.7673 69.6744 25.1221 68.7601 25.1221V25.1268Z" fill="#212325"/>
<path d="M71.7439 33.8644C71.7439 35.5122 70.4097 36.8519 68.763 36.8519C67.1162 36.8519 65.7773 35.5169 65.7773 33.8691C65.7773 32.2167 67.1115 30.8816 68.763 30.877C70.4097 30.877 71.7486 32.212 71.7486 33.8644H71.7439Z" fill="#212325"/>
<path d="M68.7601 31.3158C67.3559 31.3158 66.2176 32.4595 66.2176 33.8645C66.2176 34.5461 66.4835 35.1856 66.964 35.6664C67.4445 36.1472 68.0836 36.4133 68.7601 36.4133C69.4412 36.4133 70.0803 36.1472 70.5608 35.6664C71.0413 35.1856 71.3072 34.5461 71.3072 33.8645C71.3072 33.183 71.0413 32.5435 70.5608 32.0627C70.0803 31.5819 69.4412 31.3158 68.7601 31.3158ZM68.7601 37.2908C66.8707 37.2908 65.3359 35.7551 65.3359 33.8645C65.3359 31.974 66.8707 30.4336 68.7601 30.4336C69.6744 30.4336 70.5328 30.7884 71.1812 31.4372C71.8297 32.0861 72.1842 32.945 72.1842 33.8599C72.1842 34.7748 71.8297 35.6384 71.1812 36.2872C70.5328 36.9361 69.6744 37.2908 68.7601 37.2908Z" fill="#212325"/>
<path d="M50.233 46.0293C50.233 47.6771 48.8988 49.0168 47.2473 49.0168C45.6006 49.0168 44.2617 47.6817 44.2617 46.0293C44.2617 44.3768 45.5959 43.0371 47.2473 43.0371C48.8941 43.0371 50.233 44.3721 50.233 46.0246V46.0293Z" fill="#E4032E"/>
<path d="M47.2523 43.4858C46.5712 43.4858 45.9321 43.7518 45.4516 44.2326C44.9711 44.7134 44.7052 45.3529 44.7052 46.0345C44.7052 47.4395 45.8481 48.5832 47.2523 48.5832C47.9334 48.5832 48.5725 48.3171 49.053 47.8363C49.5335 47.3555 49.7994 46.716 49.7994 46.0345C49.7994 45.3529 49.5335 44.7134 49.053 44.2326C48.5725 43.7518 47.9334 43.4858 47.2523 43.4858ZM47.2523 49.4608C45.3629 49.4608 43.8281 47.925 43.8281 46.0345C43.8281 45.1149 44.1827 44.256 44.8311 43.6071C45.4796 42.9583 46.3379 42.6035 47.2523 42.6035C48.1666 42.6035 49.025 42.9583 49.6734 43.6071C50.3219 44.256 50.6764 45.1149 50.6764 46.0298C50.6764 46.9447 50.3219 47.8083 49.6734 48.4571C49.025 49.106 48.1666 49.4608 47.2523 49.4608Z" fill="#E4032E"/>
<path d="M39.481 46.0293C39.481 47.6771 38.1468 49.0168 36.4954 49.0168C34.8486 49.0168 33.5098 47.6817 33.5098 46.0293C33.5098 44.3768 34.844 43.0371 36.4954 43.0371C38.1422 43.0371 39.481 44.3721 39.481 46.0246V46.0293Z" fill="#212325"/>
<path d="M36.4945 43.4858C35.8134 43.4858 35.1742 43.7518 34.6937 44.2326C34.2132 44.7134 33.9473 45.3529 33.9473 46.0345C33.9473 47.4395 35.0903 48.5832 36.4945 48.5832C37.8986 48.5832 39.0369 47.4395 39.0369 46.0345C39.0369 44.6294 37.894 43.4858 36.4945 43.4858ZM36.4945 49.4608C34.6051 49.4608 33.0703 47.925 33.0703 46.0345C33.0703 45.1196 33.4249 44.256 34.0733 43.6071C34.7217 42.9583 35.5801 42.6035 36.4945 42.6035C38.3838 42.6035 39.9186 44.1393 39.9186 46.0298C39.9186 47.9203 38.3838 49.4608 36.4945 49.4608Z" fill="#212325"/>
<path d="M28.7213 46.0293C28.7213 47.6771 27.387 49.0168 25.7356 49.0168C24.0889 49.0168 22.75 47.6817 22.75 46.0293C22.75 44.3768 24.0842 43.0371 25.7356 43.0371C27.3824 43.0371 28.7213 44.3721 28.7213 46.0246V46.0293Z" fill="#E4032E"/>
<path d="M25.7425 43.4858C25.0614 43.4858 24.4223 43.7518 23.9418 44.2326C23.4613 44.7134 23.1954 45.3529 23.1954 46.0345C23.1954 47.4395 24.3383 48.5832 25.7425 48.5832C27.1467 48.5832 28.2896 47.4395 28.2849 46.0345C28.2849 45.3529 28.019 44.7134 27.5385 44.2326C27.058 43.7518 26.4189 43.4858 25.7378 43.4858H25.7425ZM25.7425 49.4608C23.8532 49.4608 22.3184 47.925 22.3184 46.0345C22.3184 45.1196 22.6729 44.256 23.3213 43.6071C23.9698 42.9583 24.8282 42.6035 25.7425 42.6035C26.6568 42.6035 27.5152 42.9583 28.1637 43.6071C28.8121 44.256 29.1666 45.1149 29.1666 46.0298C29.1666 47.9203 27.6318 49.4608 25.7425 49.4608Z" fill="#E4032E"/>
<path d="M28.7213 58.1984C28.7213 59.8462 27.387 61.1859 25.7356 61.1859C24.0889 61.1859 22.75 59.8509 22.75 58.2031C22.75 56.5506 24.0842 55.2109 25.7356 55.2109C27.387 55.2109 28.7213 56.546 28.7213 58.1938V58.1984Z" fill="#212325"/>
<path d="M25.7386 55.6498C25.0575 55.6498 24.4184 55.9159 23.9379 56.3967C23.4574 56.8775 23.1915 57.517 23.1915 58.1985C23.1915 58.8801 23.4574 59.5196 23.9379 60.0004C24.4184 60.4812 25.0575 60.7472 25.7386 60.7472C26.4197 60.7472 27.0588 60.4812 27.5393 60.0004C28.0198 59.5196 28.2857 58.8801 28.2857 58.1985C28.2857 56.7935 27.1428 55.6498 25.7386 55.6498ZM25.7386 61.6248C24.8242 61.6248 23.9659 61.27 23.3174 60.6212C22.669 59.9724 22.3145 59.1135 22.3145 58.1985C22.3145 57.2789 22.669 56.42 23.3174 55.7712C23.9659 55.1223 24.8242 54.7676 25.7386 54.7676C27.6279 54.7676 29.1627 56.3033 29.1627 58.1939C29.1627 59.1135 28.8082 59.9724 28.1597 60.6212C27.5113 61.27 26.6529 61.6248 25.7386 61.6248Z" fill="#212325"/>
<path d="M39.481 58.1984C39.481 59.8462 38.1468 61.1859 36.4954 61.1859C34.8486 61.1859 33.5098 59.8509 33.5098 58.2031C33.5098 56.5506 34.844 55.2109 36.4954 55.2109C38.1468 55.2109 39.481 56.546 39.481 58.1938V58.1984Z" fill="#E4032E"/>
<path d="M36.4945 55.6498C35.8134 55.6498 35.1742 55.9159 34.6937 56.3967C34.2132 56.8775 33.9473 57.517 33.9473 58.1985C33.9473 58.8801 34.2132 59.5196 34.6937 60.0004C35.1742 60.4812 35.8134 60.7472 36.4945 60.7472C37.1755 60.7472 37.8147 60.4812 38.2952 60.0004C38.7757 59.5196 39.0416 58.8801 39.0416 58.1985C39.0416 56.7935 37.8986 55.6498 36.4945 55.6498ZM36.4945 61.6248C35.5801 61.6248 34.7217 61.27 34.0733 60.6212C33.4249 59.9724 33.0703 59.1135 33.0703 58.1985C33.0703 57.2789 33.4249 56.42 34.0733 55.7712C34.7217 55.1223 35.5801 54.7676 36.4945 54.7676C38.3838 54.7676 39.9186 56.3033 39.9186 58.1939C39.9186 59.1135 39.564 59.9724 38.9156 60.6212C38.2672 61.27 37.4088 61.6248 36.4945 61.6248Z" fill="#E4032E"/>
<path d="M50.233 21.7004C50.233 23.3482 48.8988 24.6879 47.2473 24.6879C45.6006 24.6879 44.2617 23.3528 44.2617 21.7004C44.2617 20.0479 45.5959 18.7129 47.2473 18.7129C48.8941 18.7129 50.233 20.0479 50.233 21.7004Z" fill="#E4032E"/>
<path d="M47.2523 19.1518C45.8481 19.1518 44.7098 20.2954 44.7098 21.7005C44.7098 22.382 44.9757 23.0215 45.4562 23.5023C45.9367 23.9831 46.5758 24.2492 47.2523 24.2492C47.9334 24.2492 48.5725 23.9831 49.053 23.5023C49.5335 23.0215 49.7994 22.382 49.7994 21.7005C49.7994 21.019 49.5335 20.3795 49.053 19.8987C48.5725 19.4179 47.9334 19.1518 47.2523 19.1518ZM47.2523 25.1268C46.3379 25.1268 45.4796 24.772 44.8311 24.1232C44.1827 23.4743 43.8281 22.6154 43.8281 21.7005C43.8281 19.81 45.3629 18.2695 47.2523 18.2695C48.1666 18.2695 49.025 18.6243 49.6734 19.2731C50.3219 19.922 50.6764 20.7809 50.6764 21.6958C50.6764 22.6107 50.3219 23.4743 49.6734 24.1185C49.025 24.7673 48.1666 25.1221 47.2523 25.1221V25.1268Z" fill="#E4032E"/>
<path d="M93.2603 58.1984C93.2603 59.8462 91.9261 61.1859 90.2747 61.1859C88.6279 61.1859 87.2891 59.8509 87.2891 58.2031C87.2891 56.5506 88.6233 55.2109 90.2747 55.2109C91.9261 55.2109 93.2603 56.546 93.2603 58.1938V58.1984Z" fill="#212325"/>
<path d="M90.2679 55.6498C89.5868 55.6498 88.9523 55.9159 88.4672 56.3967C87.9867 56.8775 87.7208 57.517 87.7208 58.1985C87.7208 58.8801 87.9867 59.5196 88.4672 60.0004C88.9477 60.4812 89.5868 60.7799 90.2679 60.7472C91.6721 60.7472 92.8103 59.6036 92.8103 58.1985C92.8103 56.7935 91.6674 55.6498 90.2632 55.6498H90.2679ZM90.2679 61.6248C89.3535 61.6248 88.4952 61.27 87.8467 60.6212C87.1983 59.9724 86.8438 59.1135 86.8438 58.1985C86.8438 57.2789 87.1983 56.42 87.8467 55.7712C88.4905 55.1223 89.3535 54.7676 90.2679 54.7676C92.1572 54.7676 93.692 56.3033 93.6967 58.1939C93.6967 60.0844 92.1619 61.6248 90.2726 61.6248H90.2679Z" fill="#212325"/>
<path d="M71.7439 70.3633C71.7439 72.011 70.4097 73.3508 68.763 73.3508C67.1162 73.3508 65.7773 72.0157 65.7773 70.3633C65.7773 68.7108 67.1115 67.3758 68.763 67.3711C70.4097 67.3711 71.7486 68.7061 71.7486 70.3586L71.7439 70.3633Z" fill="#212325"/>
<path d="M68.7562 67.8139C67.352 67.8139 66.2137 68.9575 66.2137 70.3626C66.2137 71.0441 66.4796 71.6836 66.9601 72.1644C67.4406 72.6452 68.0797 72.9113 68.7608 72.9113C69.4419 72.9113 70.081 72.6452 70.5615 72.1644C71.042 71.6836 71.3079 71.0441 71.3079 70.3626C71.3079 68.9575 70.165 67.8139 68.7608 67.8139H68.7562ZM68.7562 73.7889C66.8668 73.7889 65.332 72.2531 65.332 70.3626C65.332 68.4721 66.8668 66.9316 68.7562 66.9316C70.6455 66.9316 72.1803 68.4674 72.1803 70.3579C72.1803 71.2728 71.8258 72.1364 71.1773 72.7806C70.5289 73.4294 69.6705 73.7842 68.7562 73.7842V73.7889Z" fill="#212325"/>
<path d="M50.233 70.3633C50.233 72.011 48.8988 73.3508 47.2473 73.3508C45.6006 73.3508 44.2617 72.0157 44.2617 70.3633C44.2617 68.7108 45.5959 67.3758 47.2473 67.3711C48.8941 67.3711 50.233 68.7061 50.233 70.3586V70.3633Z" fill="#212325"/>
<path d="M47.2484 67.8139C45.8442 67.8139 44.7059 68.9575 44.7059 70.3626C44.7059 71.0441 44.9718 71.6836 45.4523 72.1644C45.9328 72.6452 46.5719 72.9113 47.253 72.9113C47.9341 72.9113 48.5732 72.6452 49.0537 72.1644C49.5342 71.6836 49.8001 71.0441 49.8001 70.3626C49.8001 68.9575 48.6572 67.8139 47.253 67.8139H47.2484ZM47.2484 73.7889C45.359 73.7889 43.8242 72.2531 43.8242 70.3626C43.8242 68.4721 45.359 66.9316 47.2484 66.9316C49.1377 66.9316 50.6725 68.4674 50.6725 70.3579C50.6725 71.2728 50.318 72.1364 49.6695 72.7806C49.0211 73.4294 48.1627 73.7842 47.2484 73.7842V73.7889Z" fill="#212325"/>
<path d="M39.481 70.3633C39.481 72.011 38.1468 73.3508 36.4954 73.3508C34.8486 73.3508 33.5098 72.0157 33.5098 70.3633C33.5098 68.7108 34.844 67.3758 36.4954 67.3711C38.1422 67.3711 39.481 68.7061 39.481 70.3586V70.3633Z" fill="#212325"/>
<path d="M36.4945 67.8139C35.0903 67.8139 33.9473 68.9575 33.952 70.3626C33.952 71.0441 34.2179 71.6836 34.6984 72.1644C35.1789 72.6452 35.818 72.9113 36.4945 72.9113C37.8986 72.9113 39.0369 71.7677 39.0369 70.3626C39.0369 68.9575 37.894 67.8139 36.4898 67.8139H36.4945ZM36.4945 73.7889C35.5801 73.7889 34.7217 73.4341 34.0733 72.7853C33.4249 72.1364 33.0703 71.2775 33.0703 70.3626C33.0703 68.4721 34.6051 66.9316 36.4945 66.9316C38.3838 66.9316 39.9186 68.4674 39.9186 70.3579C39.9186 72.2484 38.3838 73.7889 36.4945 73.7889Z" fill="#212325"/>
<path d="M50.233 33.8644C50.233 35.5122 48.8988 36.8519 47.2473 36.8519C45.6006 36.8519 44.2617 35.5169 44.2617 33.8691C44.2617 32.2167 45.5959 30.8816 47.2473 30.877C48.8941 30.877 50.233 32.212 50.233 33.8644Z" fill="#212325"/>
<path d="M47.2523 31.3158C45.8481 31.3158 44.7098 32.4595 44.7098 33.8645C44.7098 34.5461 44.9757 35.1856 45.4562 35.6664C45.9367 36.1472 46.5758 36.4133 47.2523 36.4133C47.9334 36.4133 48.5725 36.1472 49.053 35.6664C49.5335 35.1856 49.7994 34.5461 49.7994 33.8645C49.7994 33.183 49.5335 32.5435 49.053 32.0627C48.5725 31.5819 47.9334 31.3158 47.2523 31.3158ZM47.2523 37.2908C45.3629 37.2908 43.8281 35.7551 43.8281 33.8645C43.8281 31.974 45.3629 30.4336 47.2523 30.4336C48.1666 30.4336 49.025 30.7884 49.6734 31.4372C50.3219 32.0861 50.6764 32.945 50.6764 33.8599C50.6764 34.7748 50.3219 35.6384 49.6734 36.2872C49.025 36.9361 48.1666 37.2908 47.2523 37.2908Z" fill="#212325"/>
<path d="M39.481 33.8644C39.481 35.5122 38.1468 36.8519 36.4954 36.8519C34.8486 36.8519 33.5098 35.5169 33.5098 33.8691C33.5098 32.2167 34.844 30.8816 36.4954 30.877C38.1422 30.877 39.481 32.212 39.481 33.8644Z" fill="#212325"/>
<path d="M36.4945 31.3158C35.0903 31.3158 33.952 32.4595 33.952 33.8645C33.952 34.5461 34.2179 35.1856 34.6984 35.6664C35.1789 36.1472 35.818 36.4133 36.4991 36.4133C37.1802 36.4133 37.8193 36.1472 38.2998 35.6664C38.7803 35.1856 39.0462 34.5461 39.0462 33.8645C39.0462 32.4595 37.9033 31.3158 36.4991 31.3158H36.4945ZM36.4945 37.2908C35.5801 37.2908 34.7217 36.9361 34.0733 36.2872C33.4249 35.6384 33.0703 34.7795 33.0703 33.8645C33.0703 31.974 34.6051 30.4336 36.4945 30.4336C38.3838 30.4336 39.9186 31.9694 39.9186 33.8599C39.9186 34.7795 39.564 35.6384 38.9156 36.2872C38.2672 36.9361 37.4088 37.2908 36.4945 37.2908Z" fill="#212325"/>
<path d="M61.7375 58.1992C61.7375 60.2625 60.0674 61.9336 58.0055 61.9336C55.9435 61.9336 54.2734 60.2625 54.2734 58.1992C54.2734 56.136 55.9435 54.4648 58.0055 54.4648C60.0674 54.4648 61.7375 56.136 61.7375 58.1992Z" fill="#212325"/>
<path d="M58.0045 54.9037C56.1898 54.9037 54.711 56.3835 54.711 58.1993C54.711 60.0151 56.1898 61.4949 58.0045 61.4949C59.8192 61.4949 61.298 60.0151 61.298 58.1993C61.298 56.3835 59.8192 54.9037 58.0045 54.9037ZM58.0045 62.3771C55.7047 62.3771 53.834 60.5053 53.834 58.1993C53.834 55.8933 55.7047 54.0215 58.0045 54.0215C60.3044 54.0215 62.1751 55.8933 62.1751 58.1993C62.1751 60.5053 60.3044 62.3771 58.0045 62.3771Z" fill="#212325"/>
<path d="M58.0044 68.1696C54.431 68.1696 51.0722 66.7412 48.5484 64.1458C46.034 61.5598 44.6484 58.1241 44.6484 54.4738L47.6294 54.4644C47.6294 57.3446 48.7164 60.0427 50.685 62.0639C52.6443 64.0758 55.2427 65.1868 58.0044 65.1868C63.7238 65.1868 68.3795 60.3741 68.3748 54.4644C68.3748 53.6382 69.0419 52.9707 69.863 52.9707C70.684 52.9707 71.3558 53.6382 71.3558 54.4598C71.3558 62.0172 65.3705 68.1649 58.0044 68.1649H57.9998L58.0044 68.1696Z" fill="#212325"/>
<path d="M60.3423 93.6227H55.668V66.6699H60.3423V93.6227Z" fill="#212325"/>
<path d="M21.6503 87.8491L21.459 87.6017C26.2966 83.8674 38.519 81.3187 52.5981 81.1133V81.426C38.589 81.6314 26.4366 84.1521 21.6503 87.8491Z" fill="#212325"/>
<path d="M22.6281 89.0901L22.4648 88.8287C27.867 85.4211 39.4409 83.1804 52.6756 82.9844V83.2971C39.4969 83.4932 27.9836 85.7151 22.6281 89.0947V89.0901Z" fill="#212325"/>
<path d="M23.6798 90.3465L23.5352 90.0711C29.2872 87.0323 40.4506 85.0297 52.6683 84.8477V85.1604C40.5019 85.3378 29.3944 87.3263 23.6798 90.3465Z" fill="#212325"/>
<path d="M24.8291 91.6209L24.7031 91.3361C30.763 88.61 41.194 86.8829 52.6047 86.7148V87.0276C41.2407 87.1956 30.8563 88.9135 24.8291 91.6209Z" fill="#212325"/>
<path d="M26.1862 92.9232L26.0742 92.6338C32.3254 90.2158 41.996 88.7407 52.6043 88.582V88.8948C42.038 89.0488 32.4093 90.5192 26.1862 92.9232Z" fill="#212325"/>
<path d="M31.061 97.003L30.9863 96.6996C36.9389 95.1965 44.6129 94.3003 52.6041 94.1836V94.4963C44.6456 94.613 36.9949 95.5046 31.0656 97.003H31.061Z" fill="#212325"/>
<path d="M29.3074 95.612L29.2188 95.3132C35.4046 93.5114 43.7084 92.4471 52.5953 92.3164V92.6292C43.7364 92.7599 35.4652 93.8195 29.3027 95.612H29.3074Z" fill="#212325"/>
<path d="M27.6839 94.2528L27.5859 93.9588C33.8184 91.8722 42.9339 90.5932 52.6046 90.4531V90.7659C42.9712 90.9059 33.8884 92.1803 27.6839 94.2575V94.2528Z" fill="#212325"/>
<path d="M94.3607 87.8491C89.5744 84.1521 77.4266 81.6314 63.4082 81.426V81.1133C77.492 81.3187 89.7144 83.8674 94.552 87.6017L94.3607 87.8491Z" fill="#212325"/>
<path d="M93.3823 89.0908C88.0268 85.7112 76.5135 83.4893 63.3301 83.2932V82.9805C76.5695 83.1765 88.1481 85.4171 93.5455 88.8248L93.3776 89.0862L93.3823 89.0908Z" fill="#212325"/>
<path d="M92.3323 90.3465C86.6223 87.3263 75.5148 85.3425 63.3438 85.1604V84.8477C75.5662 85.025 86.7296 87.0276 92.4816 90.0711L92.337 90.3465H92.3323Z" fill="#212325"/>
<path d="M91.1827 91.6209C85.1601 88.9135 74.7757 87.1956 63.4023 87.0276V86.7148C74.8177 86.8829 85.2487 88.61 91.3086 91.3361L91.1827 91.6209Z" fill="#212325"/>
<path d="M89.8251 92.9232C83.6066 90.5192 73.978 89.0488 63.4023 88.8948V88.582C74.0153 88.7361 83.6813 90.2158 89.9371 92.6338L89.8251 92.9232Z" fill="#212325"/>
<path d="M84.9514 97.003C79.0221 95.5046 71.3714 94.613 63.4082 94.4963V94.1836C71.3994 94.3003 79.0781 95.1965 85.0307 96.6996L84.956 97.003H84.9514Z" fill="#212325"/>
<path d="M86.7054 95.612C80.5429 93.8195 72.2718 92.7599 63.4082 92.6292V92.3164C72.2998 92.4471 80.6035 93.5114 86.7941 95.3132L86.7054 95.612Z" fill="#212325"/>
<path d="M88.3335 94.2536C82.1337 92.1764 73.0462 90.9067 63.4082 90.762V90.4492C73.0835 90.5893 82.199 91.8683 88.4315 93.9549L88.3335 94.2489V94.2536Z" fill="#212325"/>
<path d="M17.198 97.0632L17.4266 97.3152C17.8884 97.824 18.7048 97.6373 19.4932 96.9184C20.3282 96.1576 20.5335 95.4434 20.0576 94.9206L19.8291 94.6685L17.198 97.0632ZM18.8587 93.5949L18.6301 93.3428C18.1543 92.82 17.4219 92.9553 16.5869 93.7162C15.7985 94.4351 15.5372 95.2286 15.9991 95.7375L16.2276 95.9895L18.8587 93.5949ZM14.7488 97.3339L15.3879 96.7504L15.1034 96.4376C14.273 95.5227 14.1051 93.973 15.5932 92.6239C17.1187 91.2375 18.5742 91.6016 19.4092 92.5212L19.6938 92.834L20.3889 92.1991L21.3639 93.2728L20.6688 93.9076L20.9533 94.2204C21.793 95.1446 22.0123 96.629 20.4868 98.0107C19.0033 99.3598 17.4779 99.047 16.6475 98.1321L16.3629 97.8194L15.7238 98.4029L14.7488 97.3339Z" fill="#212325"/>
<path d="M11.024 92.6909L13.3658 91.0664C14.1122 90.5483 15.0826 89.9274 15.6797 89.68V89.6707L9.91837 91.0944L9.02734 89.8107L15.2878 85.4648L16.0576 86.5758L13.6924 88.2189C12.7361 88.8818 12.0596 89.3112 11.4158 89.582V89.5913L17.1678 88.1723L18.0589 89.456L11.7984 93.8018L11.0286 92.6909H11.024Z" fill="#212325"/>
<path d="M13.122 84.0067L12.217 82.3216L6.5256 85.3791L5.83984 84.1047L11.5312 81.0472L11.3119 80.6364L13.6958 79.3574L14.3349 80.5478L12.9774 81.276L14.8294 84.7303L8.11172 88.3386L7.42596 87.0642L13.122 84.0067Z" fill="#212325"/>
<path d="M2.37109 75.158L9.58325 72.6934L10.0498 74.0657L3.93388 76.1523L4.55433 77.9635L10.6655 75.8722L11.132 77.2446L3.91989 79.7046L2.37109 75.158Z" fill="#212325"/>
<path d="M1.60654 72.1878L4.39157 71.5763C5.27793 71.3802 6.41153 71.1748 7.05997 71.1702V71.1608L1.19135 70.2879L0.855469 68.7615L8.30087 67.123L8.59011 68.4441L5.77709 69.0649C4.64348 69.3123 3.85043 69.457 3.15067 69.4617V69.471L9.00996 70.3439L9.34584 71.8704L1.90044 73.5088L1.61121 72.1878H1.60654Z" fill="#212325"/>
<path d="M7.84618 63.272L8.00012 64.7097L1.57636 65.4006L1.76763 67.1884L0.615363 67.3144L0.0742188 62.3011L1.23115 62.1797L1.42242 63.9628L7.84618 63.272Z" fill="#212325"/>
<path d="M4.51109 58.4312L0.974993 59.0707L4.52975 59.7102L4.50643 58.4312H4.51109ZM0.0326553 60.037L0 58.0951L7.59002 56.2793L7.61801 57.8431L5.64003 58.2352L5.66802 59.8736L7.66 60.2937L7.68332 61.8482L0.0326553 60.037Z" fill="#212325"/>
<path d="M3.13915 53.7965L3.33042 51.8966L0.410102 51.6026L0.554718 50.1602L8.13541 50.9257L7.99079 52.3681L4.48268 52.0133L4.29142 53.9132L7.79953 54.268L7.65491 55.7057L0.0742188 54.9401L0.218835 53.5024L3.13915 53.7965Z" fill="#212325"/>
<path d="M1.10683 47.1224L3.89653 47.7292C4.78289 47.9206 5.9025 48.21 6.49029 48.4761V48.4667L1.52202 45.2225L1.85324 43.6914L9.30798 45.3112L9.01874 46.6322L6.20106 46.0207C5.06745 45.7733 4.28839 45.5726 3.64928 45.2832V45.2925L8.60822 48.5321L8.277 50.0632L0.822266 48.4434L1.10683 47.1224Z" fill="#212325"/>
<path d="M4.46403 39.2052L4.23078 39.8961C3.99752 40.587 4.25877 41.0678 4.93986 41.2965C5.63029 41.5299 6.13878 41.3152 6.37203 40.6243L6.60528 39.9334L4.46403 39.2052ZM7.44499 40.9651L9.96411 43.2057L9.46029 44.6948L6.83387 42.2394C6.27406 42.8416 5.35039 42.9956 4.4407 42.6875C3.27911 42.2908 2.56536 41.2778 2.96189 40.1108L3.85757 37.4688L11.0791 39.9241L10.6126 41.2965L7.67358 40.2975L7.44499 40.9697V40.9651Z" fill="#212325"/>
<path d="M10.1641 38.7144L10.6772 37.4961L12.0581 38.0843C12.5619 38.299 13.0051 38.9898 12.7578 39.5733L12.7252 39.6527L12.268 39.4613C12.3613 39.2372 12.4313 38.8311 11.7129 38.5277L11.4096 39.2466L10.1641 38.7191V38.7144Z" fill="#212325"/>
<path d="M12.9505 33.4867L13.3656 32.7632C13.6316 32.2964 13.5009 31.8669 12.7592 31.4421C12.1108 31.0687 11.5183 31.0827 11.2477 31.5542L10.8325 32.2777L12.9505 33.4867ZM8.56065 27.9879L9.50299 28.5293L8.21544 30.784L9.82021 31.6989L10.422 30.6439C11.0098 29.617 12.4046 29.5376 13.3377 30.0698C14.6112 30.798 15.1244 31.8576 14.5552 32.8565L13.1744 35.2792L6.55469 31.4935L8.56065 27.9785V27.9879Z" fill="#212325"/>
<path d="M10.5192 25.0373L12.8237 26.7131C13.5561 27.2453 14.4658 27.9595 14.895 28.4403V28.4309L11.6575 23.4642L12.5765 22.1992L18.739 26.6805L17.9459 27.7728L15.6134 26.0783C14.6757 25.3968 14.046 24.8973 13.5748 24.3745V24.3838L16.803 29.3459L15.884 30.6109L9.7168 26.1296L10.5099 25.0373H10.5192Z" fill="#212325"/>
<path d="M16.3139 21.3875L18.6137 23.4881C19.2015 24.0202 19.7333 24.0809 20.1952 23.5721C20.615 23.11 20.5357 22.5685 19.9433 22.027L17.6574 19.9404C17.0556 19.3943 16.4632 19.3243 16.0433 19.7817C15.5815 20.2905 15.7121 20.8367 16.3092 21.3828L16.3139 21.3875ZM15.1896 19.0022C16.1786 17.9192 17.3308 17.6391 18.7677 18.9508L20.811 20.8133C22.2478 22.125 22.0425 23.2687 21.0536 24.3563C20.0786 25.4253 18.9076 25.7567 17.4848 24.459L15.4415 22.5918C14.0233 21.2988 14.2146 20.0665 15.1896 18.9975V19.0022Z" fill="#212325"/>
<path d="M25.3914 19.893L24.3044 20.8499L20.0359 15.9999L18.6877 17.1855L17.918 16.3173L21.6967 12.9844L22.4664 13.8573L21.1182 15.0429L25.3914 19.893Z" fill="#212325"/>
<path d="M26.152 9.73633L26.8285 10.6793L24.6919 12.2103L25.7228 13.6527L27.6728 12.257L28.3493 13.2L26.3993 14.6003L27.7801 16.5235L29.9167 14.9878L30.5931 15.9354L27.281 18.3067L22.8398 12.1123L26.152 9.73633Z" fill="#212325"/>
<path d="M28.8039 8.10576L30.8799 9.78156L30.558 7.11148L31.9715 6.30859L32.1627 10.4631L35.7875 12.9138L34.3833 13.7073L32.0321 11.8121L32.4147 14.823L31.0385 15.6072L30.7026 11.2893L27.3438 8.93666L28.8039 8.10576Z" fill="#212325"/>
<path d="M35.8646 7.7613L37.6233 7.00976L36.4757 4.30701L37.8053 3.74219L40.7909 10.7628L39.4614 11.3276L38.0758 8.08339L36.3171 8.83027L37.698 12.0792L36.3684 12.644L33.3828 5.62338L34.717 5.05855L35.8646 7.7613Z" fill="#212325"/>
<path d="M41.4293 4.96554L42.3203 7.95304C42.5489 8.71391 42.9734 9.036 43.6312 8.83995C44.2283 8.66257 44.4429 8.15843 44.2143 7.38821L43.3279 4.41939C43.0947 3.63984 42.6235 3.27574 42.0264 3.45312C41.3686 3.64917 41.196 4.18599 41.4293 4.96554ZM41.6952 2.33748C43.104 1.91736 44.2329 2.27679 44.7881 4.13931L45.5811 6.79538C46.1363 8.6579 45.3712 9.53548 43.967 9.96026C42.5815 10.3757 41.4059 10.0536 40.8555 8.20977L40.0624 5.55837C39.5119 3.71453 40.3096 2.76226 41.6952 2.34681V2.33748Z" fill="#212325"/>
<path d="M50.8669 0.46875L52.1731 7.98417L50.7456 8.23157L49.6353 1.8598L48.1145 2.12588L48.6184 5.01068C49.0569 7.51737 48.833 8.7077 47.634 8.91309C47.3028 8.96911 47.0369 8.99712 46.7523 8.96911L46.5704 7.91882C46.6684 7.93282 46.869 7.91882 47.0369 7.89081C47.4754 7.81612 47.6107 7.55472 47.1349 4.82863L46.5098 1.22496L50.8576 0.46875H50.8669Z" fill="#212325"/>
<path d="M54.1453 2.50022L54.3272 5.61375C54.3739 6.40263 54.7144 6.81808 55.4002 6.77607C56.0206 6.73873 56.3472 6.29994 56.3005 5.49705L56.1186 2.40686C56.072 1.59463 55.6941 1.13251 55.0736 1.16518C54.3879 1.20719 54.0986 1.68799 54.1453 2.50022ZM55.0037 0.00752623C56.4685 -0.0764971 57.4855 0.530338 57.6021 2.46754L57.7654 5.23098C57.8773 7.17285 56.935 7.8497 55.4702 7.93839C54.024 8.02242 52.9557 7.43892 52.8437 5.52039L52.6805 2.75696C52.5685 0.838423 53.5622 0.0915495 55.0037 0.00752623Z" fill="#212325"/>
<path d="M63.0343 0.180957L62.9877 1.33861L60.4359 1.23592L60.1747 7.70104L58.7285 7.64036L59.0364 0.0175781L63.0343 0.180957Z" fill="#212325"/>
<path d="M65.8387 0.503125L65.4282 3.32724C65.2975 4.22816 65.0923 5.35781 64.8637 5.96464H64.873L67.7607 0.783203L69.3048 1.00726L68.2085 8.55536L66.8697 8.35931L67.2849 5.50718C67.4528 4.35886 67.5974 3.56531 67.8447 2.91179H67.8353L64.9523 8.0839L63.4082 7.85983L64.5045 0.316406L65.8434 0.512461L65.8387 0.503125Z" fill="#212325"/>
<path d="M72.3094 1.68723L71.5863 4.44599C71.3577 5.32357 71.0218 6.42988 70.7279 7.0087H70.7373L74.1894 2.18203L75.7009 2.57881L73.7602 9.95885L72.454 9.61343L73.1864 6.82198C73.4803 5.69701 73.7182 4.92679 74.0354 4.30129H74.0261L70.574 9.11862L69.0625 8.72185L71.0032 1.3418L72.3094 1.68723Z" fill="#212325"/>
<path d="M81.2084 4.64262L80.0468 7.24734C79.6782 8.07824 79.1698 9.10986 78.7872 9.63267H78.7966L82.9811 5.4315L84.4086 6.06634L81.3063 13.0309L80.0701 12.4801L81.241 9.84739C81.7122 8.78777 82.0668 8.06423 82.4819 7.49941H82.4726L78.2927 11.6912L76.8652 11.0564L79.9675 4.0918L81.2037 4.64262H81.2084Z" fill="#212325"/>
<path d="M86.0195 14.5054L86.7192 14.9582C87.1717 15.2523 87.6056 15.1449 88.0721 14.426C88.4826 13.7959 88.5013 13.203 88.0488 12.909L87.349 12.4562L86.0195 14.5007V14.5054ZM91.7621 10.4443L91.1697 11.3545L88.9958 9.93547L87.9881 11.4852L89.0051 12.1481C89.9941 12.7923 89.9941 14.1926 89.4063 15.0936C88.6086 16.3259 87.5169 16.774 86.5559 16.1485L84.2188 14.6268L88.3753 8.23633L91.7621 10.4443Z" fill="#212325"/>
<path d="M96.6726 14.2397L95.9449 15.1453L93.8969 13.4975L92.782 14.8792L94.6527 16.3823L93.9249 17.2879L92.0543 15.7848L90.5708 17.6333L92.6234 19.2811L91.8956 20.1867L88.7188 17.6286L93.4958 11.6816L96.6726 14.2397Z" fill="#212325"/>
<path d="M96.2469 16.7899C97.18 15.8423 98.4768 15.7116 99.5031 16.7199C100.231 17.4388 100.786 18.6664 99.7037 19.7681C99.1486 20.3329 98.3275 20.4869 97.7071 20.1275C98.1176 20.795 98.0476 21.6026 97.2406 22.4242C96.1676 23.5165 95.0387 23.4698 93.9611 22.4101C93.0747 21.5372 92.6315 20.3002 93.7791 19.1332L94.7775 20.1182C94.4089 20.4963 94.1943 21.0098 94.7121 21.5232C95.2066 22.0134 95.7245 21.85 96.2796 21.2898C96.9094 20.6503 96.8161 20.0995 96.3869 19.6747L96.1676 19.46L96.9327 18.6851L97.152 18.8998C97.5345 19.2779 98.0336 19.3573 98.5095 18.8765C98.864 18.5171 99.1206 17.9849 98.6868 17.5508C98.2809 17.1494 97.7304 17.2894 97.2499 17.7795L96.2516 16.7946L96.2469 16.7899Z" fill="#212325"/>
<path d="M101.33 22.2651L98.9184 24.235C98.3073 24.7345 98.172 25.2526 98.6059 25.7848C98.9977 26.2656 99.5482 26.2702 100.169 25.7614L102.562 23.8056C103.192 23.2921 103.35 22.7133 102.954 22.2325C102.52 21.7003 101.96 21.747 101.33 22.2605V22.2651ZM103.854 21.4996C104.782 22.6386 104.885 23.8196 103.383 25.0472L101.242 26.7977C99.7395 28.0254 98.6339 27.6613 97.7055 26.5223C96.7912 25.402 96.6372 24.193 98.1254 22.9747L100.267 21.2242C101.755 20.0105 102.94 20.3746 103.854 21.4996Z" fill="#212325"/>
<path d="M108.876 28.8698L102.466 33.001L101.683 31.7873L107.113 28.2863L106.077 26.6759L100.647 30.1815L99.8633 28.9632L106.273 24.832L108.876 28.8698Z" fill="#212325"/>
<path d="M107.101 35.205L110.022 33.1091L106.532 34.0567L107.101 35.205ZM110.465 31.8301L111.328 33.5712L105.245 38.4726L104.55 37.0722L106.168 35.8679L105.441 34.4021L103.458 34.8783L102.768 33.4872L110.46 31.8347L110.465 31.8301Z" fill="#212325"/>
<path d="M111.298 40.0909L111.456 40.0349C112.357 39.7035 112.581 39.3627 112.371 38.7885C112.161 38.2144 111.764 38.079 110.859 38.4104L108.037 39.4421C107.104 39.7828 106.885 40.1329 107.095 40.7071C107.295 41.2532 107.71 41.4026 108.629 41.0665L109.017 40.9265L109.511 42.2848L109.203 42.3969C107.906 42.873 106.623 42.8123 106.003 41.1179C105.35 39.3347 106.316 38.4991 107.584 38.0323L110.192 37.0801C111.867 36.4686 112.926 36.9354 113.462 38.4104C113.971 39.7968 113.462 40.8378 112.147 41.3232L111.792 41.4539L111.298 40.0956V40.0909Z" fill="#212325"/>
<path d="M112.109 44.2544L112.566 46.1123L115.417 45.4074L115.762 46.8172L108.359 48.6377L108.013 47.2326L111.437 46.3877L110.98 44.5299L107.556 45.3748L107.211 43.9697L114.614 42.1445L114.96 43.5543L112.109 44.2544Z" fill="#212325"/>
<path d="M113.977 50.2112L110.889 50.6173C110.105 50.72 109.713 51.0888 109.802 51.7703C109.881 52.3865 110.348 52.6806 111.141 52.5732L114.21 52.1718C115.017 52.0644 115.451 51.6583 115.372 51.0374C115.283 50.3559 114.779 50.1039 113.972 50.2065L113.977 50.2112ZM116.524 50.8881C116.715 52.3445 116.184 53.4041 114.257 53.6562L111.514 54.0156C109.587 54.2677 108.841 53.3761 108.65 51.9197C108.463 50.482 108.967 49.3757 110.875 49.1236L113.618 48.7641C115.526 48.5167 116.337 49.455 116.524 50.8881Z" fill="#212325"/>
<path d="M114.4 58.1757H114.568C115.529 58.1524 115.851 57.9003 115.837 57.2888C115.823 56.6773 115.492 56.4206 114.531 56.4392L111.522 56.5046C110.528 56.5279 110.207 56.7847 110.221 57.4008C110.235 57.9797 110.575 58.2597 111.559 58.2364L111.97 58.2271L112.003 59.6741H111.676C110.295 59.7115 109.101 59.24 109.064 57.4335C109.022 55.5337 110.207 55.0529 111.555 55.0248L114.33 54.9642C116.112 54.9268 116.966 55.711 116.999 57.2841C117.031 58.7639 116.215 59.5808 114.811 59.6135L114.433 59.6228L114.4 58.1757Z" fill="#212325"/>
<path d="M109.012 63.5528L109.133 62.1104L115.575 62.6519L115.729 60.8594L116.886 60.9574L116.462 65.9801L115.305 65.8868L115.454 64.0943L109.012 63.5528Z" fill="#212325"/>
<path d="M115.996 68.7621L113.197 68.216C112.306 68.0433 111.187 67.7772 110.59 67.5205V67.5298L115.623 70.6667L115.325 72.2024L107.842 70.7367L108.103 69.411L110.935 69.9665C112.073 70.1905 112.857 70.3773 113.5 70.6527V70.6433L108.476 67.5065L108.775 65.9707L116.258 67.4364L115.996 68.7621Z" fill="#212325"/>
<path d="M112.42 81.0752L105.273 78.4284L105.777 77.07L111.832 79.3153L112.495 77.5228L106.44 75.2775L106.944 73.9238L114.086 76.5706L112.42 81.0752Z" fill="#212325"/>
<path d="M111.115 83.8817L108.568 82.5934C107.756 82.1826 106.749 81.6271 106.245 81.2163V81.2256L110.233 85.6182L109.529 87.0139L102.723 83.569L103.334 82.36L105.909 83.6623C106.945 84.1898 107.649 84.5772 108.195 85.0207V85.0114L104.215 80.6281L104.92 79.2324L111.726 82.6774L111.115 83.8864V83.8817Z" fill="#212325"/>
<path d="M102.522 86.1774L101.636 87.4611L106.94 91.1441L106.119 92.3344L100.81 88.6514L99.9193 89.9351L105.228 93.6181L104.402 94.8085L99.0936 91.1254L98.8323 91.5035L96.6211 89.9725L97.3908 88.8615L98.6457 89.7344L102.392 84.3242L108.657 88.6701L107.831 89.8604L102.522 86.1774Z" fill="#212325"/>
<path d="M102.07 97.423L99.9803 95.4858C99.3132 94.8696 98.4968 94.0574 98.1283 93.5252V93.5346L100.755 98.8514L99.691 99.9997L94.0977 94.8183L95.0167 93.824L97.1299 95.7845C97.9836 96.5734 98.5481 97.1429 98.954 97.7171L98.9633 97.7077L96.3369 92.4003L97.4005 91.252L102.994 96.4334L102.075 97.423H102.07Z" fill="#212325"/>
</svg>
