<svg width="247" height="212" viewBox="0 0 247 212" fill="none" xmlns="http://www.w3.org/2000/svg">
<path d="M151.025 97.5817C151.025 101.075 148.216 103.915 144.75 103.915C141.283 103.915 138.465 101.085 138.465 97.5817C138.465 94.0785 141.273 91.2383 144.75 91.2383C148.216 91.2383 151.035 94.0686 151.035 97.5718L151.025 97.5817Z" fill="#E4032E"/>
<path d="M144.749 92.1887C141.793 92.1887 139.397 94.6133 139.397 97.592C139.397 100.571 141.803 102.995 144.759 102.995C146.193 102.995 147.538 102.431 148.55 101.412C149.561 100.393 150.111 99.0368 150.111 97.592C150.111 96.1472 149.551 94.7914 148.54 93.7721C147.528 92.7528 146.183 92.1887 144.759 92.1887H144.749ZM144.749 104.856C140.772 104.856 137.541 101.6 137.531 97.592C137.531 93.5841 140.762 90.3184 144.739 90.3184C146.664 90.3184 148.471 91.0705 149.836 92.446C151.201 93.8216 151.947 95.6425 151.947 97.5821C151.947 99.5217 151.201 101.353 149.836 102.728C148.471 104.104 146.664 104.856 144.739 104.856H144.749Z" fill="#E4032E"/>
<path d="M173.673 97.5817C173.673 101.075 170.865 103.915 167.388 103.915C163.922 103.915 161.104 101.085 161.104 97.5817C161.104 94.0785 163.912 91.2383 167.388 91.2383C170.855 91.2383 173.673 94.0686 173.673 97.5718V97.5817Z" fill="white"/>
<path d="M167.386 92.1887C164.43 92.1887 162.034 94.6133 162.034 97.592C162.034 100.571 164.44 102.995 167.396 102.995C170.352 102.995 172.748 100.571 172.748 97.592C172.748 96.1472 172.188 94.7914 171.176 93.7721C170.165 92.7528 168.82 92.1887 167.386 92.1887ZM167.386 104.856C163.409 104.856 160.178 101.6 160.178 97.592C160.178 93.5841 163.409 90.3184 167.386 90.3184C169.311 90.3184 171.118 91.0705 172.483 92.446C173.848 93.8216 174.594 95.6425 174.594 97.5821C174.594 101.59 171.363 104.856 167.386 104.856Z" fill="white"/>
<path d="M173.673 71.7925C173.673 75.2858 170.865 78.126 167.388 78.126C163.922 78.126 161.104 75.2957 161.104 71.8024C161.104 68.2992 163.912 65.4689 167.388 65.459C170.855 65.459 173.673 68.2893 173.673 71.7925Z" fill="#E4032E"/>
<path d="M167.386 66.3879C164.43 66.3879 162.034 68.8125 162.034 71.7912C162.034 73.236 162.594 74.5918 163.605 75.6111C164.617 76.6304 165.962 77.1945 167.396 77.1945C170.352 77.1945 172.748 74.7699 172.748 71.7912C172.748 70.3464 172.188 68.9906 171.176 67.9713C170.165 66.952 168.82 66.3879 167.386 66.3879ZM167.386 79.055C165.461 79.055 163.654 78.3028 162.289 76.9273C160.924 75.5517 160.178 73.7309 160.178 71.7912C160.178 67.7833 163.409 64.5176 167.386 64.5176C169.311 64.5176 171.118 65.2697 172.483 66.6452C173.848 68.0208 174.594 69.8417 174.594 71.7813C174.594 75.7892 171.363 79.055 167.386 79.055Z" fill="#E4032E"/>
<path d="M174.328 149.17C174.328 152.663 171.519 155.503 168.043 155.503C164.566 155.503 161.758 152.673 161.758 149.17C161.758 145.666 164.566 142.836 168.043 142.826C171.509 142.826 174.328 145.656 174.328 149.16V149.17Z" fill="#E4032E"/>
<path d="M168.042 143.767C165.086 143.767 162.69 146.191 162.69 149.17C162.69 150.615 163.25 151.971 164.261 152.99C165.273 154.009 166.618 154.573 168.052 154.573C171.008 154.573 173.404 152.149 173.404 149.17C173.404 146.191 170.998 143.767 168.042 143.767ZM168.042 156.434C166.117 156.434 164.31 155.682 162.945 154.306C161.58 152.931 160.834 151.11 160.834 149.17C160.834 145.162 164.065 141.896 168.042 141.896C172.019 141.896 175.26 145.152 175.26 149.16C175.26 153.168 172.029 156.434 168.052 156.434H168.042Z" fill="#E4032E"/>
<path d="M173.673 123.38C173.673 126.874 170.865 129.714 167.388 129.714C163.922 129.714 161.104 126.884 161.104 123.39C161.104 119.887 163.912 117.047 167.388 117.047C170.865 117.047 173.673 119.877 173.673 123.37V123.38Z" fill="white"/>
<path d="M167.386 117.978C164.43 117.978 162.034 120.402 162.034 123.381C162.034 124.826 162.594 126.182 163.605 127.201C164.617 128.22 165.962 128.784 167.386 128.784C170.342 128.784 172.738 126.36 172.738 123.381C172.738 120.402 170.332 117.978 167.376 117.978H167.386ZM167.386 130.645C165.461 130.645 163.654 129.893 162.289 128.517C160.924 127.142 160.178 125.321 160.178 123.381C160.178 119.373 163.409 116.107 167.386 116.107C171.363 116.107 174.594 119.363 174.594 123.371C174.594 127.379 171.363 130.645 167.386 130.645Z" fill="white"/>
<path d="M196.322 97.5817C196.322 101.075 193.513 103.915 190.037 103.915C186.57 103.915 183.752 101.085 183.752 97.5817C183.752 94.0785 186.561 91.2383 190.037 91.2383C193.513 91.2383 196.322 94.0686 196.322 97.5718V97.5817Z" fill="#E4032E"/>
<path d="M190.03 92.1887C188.597 92.1887 187.251 92.7528 186.24 93.7721C185.228 94.7914 184.668 96.1472 184.668 97.592C184.668 100.571 187.074 102.995 190.03 102.995C192.986 102.995 195.382 100.571 195.382 97.592C195.382 94.6133 192.976 92.1887 190.021 92.1887H190.03ZM190.03 104.856C186.053 104.856 182.822 101.6 182.822 97.592C182.822 95.6524 183.569 93.8216 184.934 92.446C186.299 91.0705 188.106 90.3184 190.03 90.3184C194.008 90.3184 197.238 93.5742 197.238 97.5821C197.238 101.59 194.008 104.856 190.03 104.856Z" fill="#E4032E"/>
<path d="M128.388 97.5817C128.388 101.075 125.58 103.915 122.103 103.915C118.637 103.915 115.818 101.085 115.818 97.5817C115.818 94.0785 118.627 91.2383 122.103 91.2383C125.57 91.2383 128.388 94.0686 128.388 97.5718V97.5817Z" fill="white"/>
<path d="M122.105 92.1887C120.671 92.1887 119.325 92.7528 118.314 93.7721C117.302 94.7914 116.743 96.1472 116.743 97.592C116.743 100.571 119.149 102.995 122.105 102.995C125.06 102.995 127.457 100.571 127.457 97.592C127.457 96.1472 126.897 94.7914 125.885 93.7721C124.874 92.7528 123.529 92.1887 122.105 92.1887ZM122.105 104.856C118.127 104.856 114.896 101.6 114.896 97.592C114.896 95.6524 115.643 93.8216 117.008 92.446C118.373 91.0705 120.18 90.3184 122.105 90.3184C124.029 90.3184 125.836 91.0705 127.201 92.446C128.566 93.8216 129.313 95.6425 129.313 97.5821C129.313 101.59 126.082 104.856 122.105 104.856Z" fill="white"/>
<path d="M128.388 71.7925C128.388 75.2858 125.58 78.126 122.103 78.126C118.637 78.126 115.818 75.2957 115.818 71.8024C115.818 68.2992 118.627 65.4689 122.103 65.459C125.57 65.459 128.388 68.2893 128.388 71.7925Z" fill="white"/>
<path d="M122.105 66.3879C119.149 66.3879 116.753 68.8125 116.753 71.7912C116.753 73.236 117.312 74.5918 118.324 75.6111C119.335 76.6304 120.681 77.1945 122.105 77.1945C123.538 77.1945 124.884 76.6304 125.895 75.6111C126.907 74.5918 127.466 73.236 127.466 71.7912C127.466 70.3464 126.907 68.9906 125.895 67.9713C124.884 66.952 123.538 66.3879 122.105 66.3879ZM122.105 79.055C120.18 79.055 118.373 78.3028 117.008 76.9273C115.643 75.5517 114.896 73.7309 114.896 71.7912C114.896 67.7833 118.127 64.5176 122.105 64.5176C124.029 64.5176 125.836 65.2697 127.201 66.6452C128.566 68.0208 129.313 69.8417 129.313 71.7813C129.313 73.721 128.566 75.5517 127.201 76.9273C125.836 78.3028 124.029 79.055 122.105 79.055Z" fill="white"/>
<path d="M128.388 46.0034C128.388 49.4968 125.58 52.3369 122.103 52.3369C118.637 52.3369 115.818 49.5067 115.818 46.0034C115.818 42.5002 118.627 39.6699 122.103 39.6699C125.57 39.6699 128.388 42.5002 128.388 46.0034Z" fill="white"/>
<path d="M122.105 40.6008C119.149 40.6008 116.753 43.0254 116.753 46.0041C116.753 47.4489 117.312 48.8047 118.324 49.824C119.335 50.8433 120.681 51.4074 122.105 51.4074C123.538 51.4074 124.884 50.8433 125.895 49.824C126.907 48.8047 127.466 47.4489 127.466 46.0041C127.466 44.5593 126.907 43.2035 125.895 42.1842C124.884 41.1649 123.538 40.6008 122.105 40.6008ZM122.105 53.2678C120.18 53.2678 118.373 52.5157 117.008 51.1402C115.643 49.7646 114.896 47.9437 114.896 46.0041C114.896 41.9962 118.127 38.7305 122.105 38.7305C124.029 38.7305 125.836 39.4826 127.201 40.8581C128.566 42.2337 129.313 44.0546 129.313 45.9942C129.313 47.9338 128.566 49.7646 127.201 51.1303C125.836 52.5058 124.029 53.2579 122.105 53.2579V53.2678Z" fill="white"/>
<path d="M151.025 46.0034C151.025 49.4968 148.216 52.3369 144.75 52.3369C141.283 52.3369 138.465 49.5067 138.465 46.0034C138.465 42.5002 141.273 39.6699 144.75 39.6699C148.216 39.6699 151.035 42.5002 151.035 46.0034H151.025Z" fill="white"/>
<path d="M144.747 40.6008C141.791 40.6008 139.395 43.0254 139.395 46.0041C139.395 47.4489 139.955 48.8047 140.966 49.824C141.978 50.8433 143.323 51.4074 144.747 51.4074C146.181 51.4074 147.526 50.8433 148.538 49.824C149.549 48.8047 150.109 47.4489 150.109 46.0041C150.109 44.5593 149.549 43.2035 148.538 42.1842C147.526 41.1649 146.181 40.6008 144.747 40.6008ZM144.747 53.2678C142.822 53.2678 141.015 52.5157 139.65 51.1402C138.285 49.7646 137.539 47.9437 137.539 46.0041C137.539 41.9962 140.77 38.7305 144.747 38.7305C146.672 38.7305 148.479 39.4826 149.844 40.8581C151.209 42.2337 151.955 44.0546 151.955 45.9942C151.955 47.9338 151.209 49.7646 149.844 51.1303C148.479 52.5058 146.672 53.2579 144.747 53.2579V53.2678Z" fill="white"/>
<path d="M151.025 71.7925C151.025 75.2858 148.216 78.126 144.75 78.126C141.283 78.126 138.465 75.2957 138.465 71.8024C138.465 68.2992 141.273 65.4689 144.75 65.459C148.216 65.459 151.035 68.2893 151.035 71.7925H151.025Z" fill="white"/>
<path d="M144.747 66.3879C141.791 66.3879 139.395 68.8125 139.395 71.7912C139.395 73.236 139.955 74.5918 140.966 75.6111C141.978 76.6304 143.323 77.1945 144.747 77.1945C146.181 77.1945 147.526 76.6304 148.538 75.6111C149.549 74.5918 150.109 73.236 150.109 71.7912C150.109 70.3464 149.549 68.9906 148.538 67.9713C147.526 66.952 146.181 66.3879 144.747 66.3879ZM144.747 79.055C140.77 79.055 137.539 75.7991 137.539 71.7912C137.539 67.7833 140.77 64.5176 144.747 64.5176C146.672 64.5176 148.479 65.2697 149.844 66.6452C151.209 68.0208 151.955 69.8417 151.955 71.7813C151.955 73.721 151.209 75.5517 149.844 76.9273C148.479 78.3028 146.672 79.055 144.747 79.055Z" fill="white"/>
<path d="M105.746 97.5817C105.746 101.075 102.937 103.915 99.4608 103.915C95.9942 103.915 93.1758 101.085 93.1758 97.5817C93.1758 94.0785 95.9844 91.2383 99.4608 91.2383C102.927 91.2383 105.746 94.0686 105.746 97.5718V97.5817Z" fill="#E4032E"/>
<path d="M99.4718 92.1887C98.038 92.1887 96.6926 92.7528 95.6811 93.7721C94.6696 94.7914 94.1099 96.1472 94.1099 97.592C94.1099 100.571 96.5159 102.995 99.4718 102.995C100.906 102.995 102.251 102.431 103.262 101.412C104.274 100.393 104.834 99.0368 104.834 97.592C104.834 96.1472 104.274 94.7914 103.262 93.7721C102.251 92.7528 100.906 92.1887 99.4718 92.1887ZM99.4718 104.856C95.4946 104.856 92.2637 101.6 92.2637 97.592C92.2637 95.6425 93.01 93.8216 94.375 92.446C95.7401 91.0705 97.547 90.3184 99.4718 90.3184C101.397 90.3184 103.203 91.0705 104.569 92.446C105.934 93.8216 106.68 95.6425 106.68 97.5821C106.68 99.5217 105.934 101.353 104.569 102.728C103.203 104.104 101.397 104.856 99.4718 104.856Z" fill="#E4032E"/>
<path d="M83.111 97.5817C83.111 101.075 80.3024 103.915 76.826 103.915C73.3594 103.915 70.541 101.085 70.541 97.5817C70.541 94.0785 73.3496 91.2383 76.826 91.2383C80.2926 91.2383 83.111 94.0686 83.111 97.5718V97.5817Z" fill="white"/>
<path d="M76.8233 92.1887C75.3896 92.1887 74.0442 92.7528 73.0327 93.7721C72.0212 94.7914 71.4614 96.1472 71.4614 97.592C71.4614 100.571 73.8674 102.995 76.8233 102.995C79.7792 102.995 82.1754 100.571 82.1754 97.592C82.1754 94.6133 79.7694 92.1887 76.8233 92.1887ZM76.8233 104.856C72.8461 104.856 69.6152 101.6 69.6152 97.592C69.6152 95.6524 70.3616 93.8216 71.7266 92.446C73.0916 91.0705 74.8986 90.3184 76.8233 90.3184C80.8006 90.3184 84.0314 93.5742 84.0314 97.5821C84.0314 101.59 80.8006 104.856 76.8233 104.856Z" fill="white"/>
<path d="M60.4626 97.5817C60.4626 101.075 57.6539 103.915 54.1776 103.915C50.711 103.915 47.8926 101.085 47.8926 97.5817C47.8926 94.0785 50.7012 91.2383 54.1776 91.2383C57.6441 91.2383 60.4626 94.0686 60.4626 97.5718V97.5817Z" fill="#E4032E"/>
<path d="M54.1905 92.1887C52.7568 92.1887 51.4114 92.7528 50.3999 93.7721C49.3884 94.7914 48.8286 96.1472 48.8286 97.592C48.8286 100.571 51.2346 102.995 54.1905 102.995C57.1464 102.995 59.5524 100.571 59.5426 97.592C59.5426 96.1472 58.9828 94.7914 57.9713 93.7721C56.9598 92.7528 55.6145 92.1887 54.1807 92.1887H54.1905ZM54.1905 104.856C50.2133 104.856 46.9824 101.6 46.9824 97.592C46.9824 95.6524 47.7288 93.8216 49.0938 92.446C50.4588 91.0705 52.2657 90.3184 54.1905 90.3184C56.1153 90.3184 57.9222 91.0705 59.2873 92.446C60.6523 93.8216 61.3986 95.6425 61.3986 97.5821C61.3986 101.59 58.1677 104.856 54.1905 104.856Z" fill="#E4032E"/>
<path d="M60.4626 123.38C60.4626 126.874 57.6539 129.714 54.1776 129.714C50.711 129.714 47.8926 126.884 47.8926 123.39C47.8926 119.887 50.7012 117.047 54.1776 117.047C57.6539 117.047 60.4626 119.877 60.4626 123.37V123.38Z" fill="white"/>
<path d="M54.1827 117.978C52.7489 117.978 51.4036 118.542 50.3921 119.561C49.3806 120.58 48.8208 121.936 48.8208 123.381C48.8208 124.826 49.3806 126.182 50.3921 127.201C51.4036 128.22 52.7489 128.784 54.1827 128.784C55.6165 128.784 56.9618 128.22 57.9733 127.201C58.9848 126.182 59.5446 124.826 59.5446 123.381C59.5446 120.402 57.1386 117.978 54.1827 117.978ZM54.1827 130.645C52.2579 130.645 50.451 129.893 49.086 128.517C47.7209 127.142 46.9746 125.321 46.9746 123.381C46.9746 121.432 47.7209 119.611 49.086 118.235C50.451 116.86 52.2579 116.107 54.1827 116.107C58.1599 116.107 61.3908 119.363 61.3908 123.371C61.3908 125.321 60.6445 127.142 59.2794 128.517C57.9144 129.893 56.1075 130.645 54.1827 130.645Z" fill="white"/>
<path d="M83.111 123.38C83.111 126.874 80.3024 129.714 76.826 129.714C73.3594 129.714 70.541 126.884 70.541 123.39C70.541 119.887 73.3496 117.047 76.826 117.047C80.3024 117.047 83.111 119.877 83.111 123.37V123.38Z" fill="#E4032E"/>
<path d="M76.8233 117.978C75.3896 117.978 74.0442 118.542 73.0327 119.561C72.0212 120.58 71.4614 121.936 71.4614 123.381C71.4614 124.826 72.0212 126.182 73.0327 127.201C74.0442 128.22 75.3896 128.784 76.8233 128.784C78.2571 128.784 79.6025 128.22 80.614 127.201C81.6254 126.182 82.1852 124.826 82.1852 123.381C82.1852 120.402 79.7792 117.978 76.8233 117.978ZM76.8233 130.645C74.8986 130.645 73.0916 129.893 71.7266 128.517C70.3616 127.142 69.6152 125.321 69.6152 123.381C69.6152 121.432 70.3616 119.611 71.7266 118.235C73.0916 116.86 74.8986 116.107 76.8233 116.107C80.8006 116.107 84.0314 119.363 84.0314 123.371C84.0314 125.321 83.2851 127.142 81.9201 128.517C80.555 129.893 78.7481 130.645 76.8233 130.645Z" fill="#E4032E"/>
<path d="M105.746 46.0034C105.746 49.4968 102.937 52.3369 99.4608 52.3369C95.9942 52.3369 93.1758 49.5067 93.1758 46.0034C93.1758 42.5002 95.9844 39.6699 99.4608 39.6699C102.927 39.6699 105.746 42.5002 105.746 46.0034Z" fill="#E4032E"/>
<path d="M99.4718 40.6008C96.5159 40.6008 94.1197 43.0254 94.1197 46.0041C94.1197 47.4489 94.6795 48.8047 95.691 49.824C96.7025 50.8433 98.0478 51.4074 99.4718 51.4074C100.906 51.4074 102.251 50.8433 103.262 49.824C104.274 48.8047 104.834 47.4489 104.834 46.0041C104.834 44.5593 104.274 43.2035 103.262 42.1842C102.251 41.1649 100.906 40.6008 99.4718 40.6008ZM99.4718 53.2678C97.547 53.2678 95.7401 52.5157 94.375 51.1402C93.01 49.7646 92.2637 47.9437 92.2637 46.0041C92.2637 41.9962 95.4946 38.7305 99.4718 38.7305C101.397 38.7305 103.203 39.4826 104.569 40.8581C105.934 42.2337 106.68 44.0546 106.68 45.9942C106.68 47.9338 105.934 49.7646 104.569 51.1303C103.203 52.5058 101.397 53.2579 99.4718 53.2579V53.2678Z" fill="#E4032E"/>
<path d="M196.322 123.38C196.322 126.874 193.513 129.714 190.037 129.714C186.57 129.714 183.752 126.884 183.752 123.39C183.752 119.887 186.561 117.047 190.037 117.047C193.513 117.047 196.322 119.877 196.322 123.37V123.38Z" fill="white"/>
<path d="M190.024 117.978C188.591 117.978 187.255 118.542 186.234 119.561C185.222 120.58 184.663 121.936 184.663 123.381C184.663 124.826 185.222 126.182 186.234 127.201C187.245 128.22 188.591 128.854 190.024 128.784C192.98 128.784 195.377 126.36 195.377 123.381C195.377 120.402 192.971 117.978 190.015 117.978H190.024ZM190.024 130.645C188.1 130.645 186.293 129.893 184.928 128.517C183.563 127.142 182.816 125.321 182.816 123.381C182.816 121.432 183.563 119.611 184.928 118.235C186.283 116.86 188.1 116.107 190.024 116.107C194.002 116.107 197.233 119.363 197.242 123.371C197.242 127.379 194.012 130.645 190.034 130.645H190.024Z" fill="white"/>
<path d="M151.025 149.17C151.025 152.663 148.216 155.503 144.75 155.503C141.283 155.503 138.465 152.673 138.465 149.17C138.465 145.666 141.273 142.836 144.75 142.826C148.216 142.826 151.035 145.656 151.035 149.16L151.025 149.17Z" fill="white"/>
<path d="M144.739 143.767C141.783 143.767 139.387 146.191 139.387 149.17C139.387 150.615 139.947 151.971 140.959 152.99C141.97 154.009 143.315 154.573 144.749 154.573C146.183 154.573 147.528 154.009 148.54 152.99C149.551 151.971 150.111 150.615 150.111 149.17C150.111 146.191 147.705 143.767 144.749 143.767H144.739ZM144.739 156.434C140.762 156.434 137.531 153.178 137.531 149.17C137.531 145.162 140.762 141.896 144.739 141.896C148.717 141.896 151.947 145.152 151.947 149.16C151.947 151.1 151.201 152.931 149.836 154.296C148.471 155.672 146.664 156.424 144.739 156.424V156.434Z" fill="white"/>
<path d="M105.746 149.17C105.746 152.663 102.937 155.503 99.4608 155.503C95.9942 155.503 93.1758 152.673 93.1758 149.17C93.1758 145.666 95.9844 142.836 99.4608 142.826C102.927 142.826 105.746 145.656 105.746 149.16V149.17Z" fill="white"/>
<path d="M99.464 143.767C96.508 143.767 94.1119 146.191 94.1119 149.17C94.1119 150.615 94.6716 151.971 95.6831 152.99C96.6946 154.009 98.04 154.573 99.4738 154.573C100.908 154.573 102.253 154.009 103.264 152.99C104.276 151.971 104.836 150.615 104.836 149.17C104.836 146.191 102.43 143.767 99.4738 143.767H99.464ZM99.464 156.434C95.4867 156.434 92.2559 153.178 92.2559 149.17C92.2559 145.162 95.4867 141.896 99.464 141.896C103.441 141.896 106.672 145.152 106.672 149.16C106.672 151.1 105.926 152.931 104.561 154.296C103.196 155.672 101.389 156.424 99.464 156.424V156.434Z" fill="white"/>
<path d="M83.111 149.17C83.111 152.663 80.3024 155.503 76.826 155.503C73.3594 155.503 70.541 152.673 70.541 149.17C70.541 145.666 73.3496 142.836 76.826 142.826C80.2926 142.826 83.111 145.656 83.111 149.16V149.17Z" fill="white"/>
<path d="M76.8233 143.767C73.8674 143.767 71.4614 146.191 71.4713 149.17C71.4713 150.615 72.031 151.971 73.0425 152.99C74.054 154.009 75.3994 154.573 76.8233 154.573C79.7792 154.573 82.1754 152.149 82.1754 149.17C82.1754 146.191 79.7694 143.767 76.8135 143.767H76.8233ZM76.8233 156.434C74.8986 156.434 73.0916 155.682 71.7266 154.306C70.3616 152.931 69.6152 151.11 69.6152 149.17C69.6152 145.162 72.8461 141.896 76.8233 141.896C80.8006 141.896 84.0314 145.152 84.0314 149.16C84.0314 153.168 80.8006 156.434 76.8233 156.434Z" fill="white"/>
<path d="M105.746 71.7925C105.746 75.2858 102.937 78.126 99.4608 78.126C95.9942 78.126 93.1758 75.2957 93.1758 71.8024C93.1758 68.2992 95.9844 65.4689 99.4608 65.459C102.927 65.459 105.746 68.2893 105.746 71.7925Z" fill="white"/>
<path d="M99.4718 66.3879C96.5159 66.3879 94.1197 68.8125 94.1197 71.7912C94.1197 73.236 94.6795 74.5918 95.691 75.6111C96.7025 76.6304 98.0478 77.1945 99.4718 77.1945C100.906 77.1945 102.251 76.6304 103.262 75.6111C104.274 74.5918 104.834 73.236 104.834 71.7912C104.834 70.3464 104.274 68.9906 103.262 67.9713C102.251 66.952 100.906 66.3879 99.4718 66.3879ZM99.4718 79.055C95.4946 79.055 92.2637 75.7991 92.2637 71.7912C92.2637 67.7833 95.4946 64.5176 99.4718 64.5176C101.397 64.5176 103.203 65.2697 104.569 66.6452C105.934 68.0208 106.68 69.8417 106.68 71.7813C106.68 73.721 105.934 75.5517 104.569 76.9273C103.203 78.3028 101.397 79.055 99.4718 79.055Z" fill="white"/>
<path d="M83.111 71.7925C83.111 75.2858 80.3024 78.126 76.826 78.126C73.3594 78.126 70.541 75.2957 70.541 71.8024C70.541 68.2992 73.3496 65.4689 76.826 65.459C80.2926 65.459 83.111 68.2893 83.111 71.7925Z" fill="white"/>
<path d="M76.8233 66.3879C73.8674 66.3879 71.4713 68.8125 71.4713 71.7912C71.4713 73.236 72.031 74.5918 73.0425 75.6111C74.054 76.6304 75.3994 77.1945 76.8331 77.1945C78.2669 77.1945 79.6123 76.6304 80.6238 75.6111C81.6353 74.5918 82.195 73.236 82.195 71.7912C82.195 68.8125 79.7891 66.3879 76.8331 66.3879H76.8233ZM76.8233 79.055C74.8986 79.055 73.0916 78.3028 71.7266 76.9273C70.3616 75.5517 69.6152 73.7309 69.6152 71.7912C69.6152 67.7833 72.8461 64.5176 76.8233 64.5176C80.8006 64.5176 84.0314 67.7734 84.0314 71.7813C84.0314 73.7309 83.2851 75.5517 81.9201 76.9273C80.555 78.3028 78.7481 79.055 76.8233 79.055Z" fill="white"/>
<path d="M129.962 123.382C129.962 127.756 126.447 131.299 122.106 131.299C117.766 131.299 114.25 127.756 114.25 123.382C114.25 119.008 117.766 115.465 122.106 115.465C126.447 115.465 129.962 119.008 129.962 123.382Z" fill="white"/>
<path d="M122.106 116.394C118.285 116.394 115.172 119.531 115.172 123.38C115.172 127.23 118.285 130.367 122.106 130.367C125.926 130.367 129.039 127.23 129.039 123.38C129.039 119.531 125.926 116.394 122.106 116.394ZM122.106 132.237C117.264 132.237 113.326 128.269 113.326 123.38C113.326 118.492 117.264 114.523 122.106 114.523C126.947 114.523 130.885 118.492 130.885 123.38C130.885 128.269 126.947 132.237 122.106 132.237Z" fill="white"/>
<path d="M122.106 144.519C114.583 144.519 107.513 141.49 102.2 135.988C96.9069 130.506 93.9902 123.222 93.9902 115.483L100.265 115.464C100.265 121.57 102.554 127.289 106.698 131.574C110.822 135.84 116.292 138.195 122.106 138.195C134.145 138.195 143.946 127.992 143.936 115.464C143.936 113.712 145.341 112.297 147.069 112.297C148.797 112.297 150.211 113.712 150.211 115.454C150.211 131.476 137.612 144.509 122.106 144.509H122.096L122.106 144.519Z" fill="white"/>
<path d="M127.025 198.482H117.186V141.342H127.025V198.482Z" fill="white"/>
<path d="M45.5765 186.241L45.1738 185.717C55.3575 177.8 81.0866 172.396 110.724 171.961V172.624C81.234 173.059 55.6521 178.403 45.5765 186.241Z" fill="white"/>
<path d="M47.6367 188.874L47.293 188.32C58.6649 181.095 83.029 176.345 110.889 175.93V176.593C83.1468 177.008 58.9104 181.719 47.6367 188.884V188.874Z" fill="white"/>
<path d="M49.8474 191.537L49.543 190.953C61.6514 184.51 85.1514 180.265 110.871 179.879V180.542C85.2594 180.918 61.8773 185.134 49.8474 191.537Z" fill="white"/>
<path d="M52.2671 194.239L52.002 193.635C64.7585 187.856 86.7167 184.194 110.737 183.838V184.501C86.8149 184.857 64.9549 188.499 52.2671 194.239Z" fill="white"/>
<path d="M55.1224 196.998L54.8867 196.385C68.0459 191.259 88.4034 188.131 110.735 187.795V188.458C88.4918 188.785 68.2227 191.902 55.1224 196.998Z" fill="white"/>
<path d="M65.3856 205.647L65.2285 205.004C77.7592 201.817 93.9136 199.917 110.736 199.67V200.333C93.9823 200.58 77.8771 202.471 65.3955 205.647H65.3856Z" fill="white"/>
<path d="M61.6944 202.7L61.5078 202.066C74.5295 198.246 92.0096 195.99 110.717 195.713V196.376C92.0686 196.653 74.6572 198.899 61.6846 202.7H61.6944Z" fill="white"/>
<path d="M58.2765 199.819L58.0703 199.196C71.1902 194.772 90.3791 192.061 110.737 191.764V192.427C90.4576 192.724 71.3375 195.425 58.2765 199.829V199.819Z" fill="white"/>
<path d="M198.638 186.241C188.562 178.403 162.99 173.059 133.48 172.624V171.961C163.128 172.396 188.857 177.8 199.041 185.717L198.638 186.241Z" fill="white"/>
<path d="M196.577 188.874C185.303 181.709 161.067 176.999 133.314 176.583V175.92C161.184 176.336 185.558 181.086 196.921 188.31L196.567 188.864L196.577 188.874Z" fill="white"/>
<path d="M194.367 191.537C182.347 185.134 158.965 180.928 133.344 180.542V179.879C159.073 180.255 182.573 184.5 194.681 190.953L194.377 191.537H194.367Z" fill="white"/>
<path d="M191.949 194.239C179.271 188.499 157.411 184.857 133.469 184.501V183.838C157.499 184.194 179.457 187.856 192.214 193.635L191.949 194.239Z" fill="white"/>
<path d="M189.091 196.998C176 191.902 155.731 188.785 133.469 188.458V187.795C155.81 188.121 176.158 191.259 189.327 196.385L189.091 196.998Z" fill="white"/>
<path d="M178.831 205.647C166.349 202.471 150.244 200.58 133.48 200.333V199.67C150.303 199.917 166.467 201.817 178.998 205.004L178.84 205.647H178.831Z" fill="white"/>
<path d="M182.523 202.7C169.55 198.899 152.139 196.653 133.48 196.376V195.713C152.198 195.99 169.678 198.246 182.71 202.066L182.523 202.7Z" fill="white"/>
<path d="M185.95 199.819C172.899 195.415 153.769 192.724 133.48 192.417V191.754C153.848 192.051 173.037 194.762 186.157 199.186L185.95 199.809V199.819Z" fill="white"/>
<path d="M36.2036 205.775L36.6848 206.31C37.657 207.388 39.3756 206.992 41.0352 205.468C42.793 203.855 43.2251 202.341 42.2235 201.233L41.7423 200.698L36.2036 205.775ZM39.6996 198.422L39.2184 197.888C38.2168 196.78 36.675 197.067 34.9172 198.68C33.2575 200.204 32.7076 201.886 33.6798 202.965L34.161 203.499L39.6996 198.422ZM31.048 206.349L32.3933 205.112L31.7943 204.449C30.0463 202.509 29.6928 199.224 32.8254 196.364C36.0367 193.425 39.1006 194.197 40.8584 196.146L41.4575 196.809L42.9207 195.463L44.9731 197.74L43.5099 199.085L44.1089 199.748C45.8766 201.708 46.3382 204.855 43.1269 207.784C40.0041 210.644 36.7928 209.981 35.0448 208.041L34.4458 207.378L33.1004 208.615L31.048 206.349Z" fill="white"/>
<path d="M23.205 196.505L28.1348 193.061C29.7061 191.962 31.7487 190.646 33.0057 190.122V190.102L20.8776 193.12L19.002 190.399L32.1808 181.186L33.8011 183.541L28.8222 187.024C26.8091 188.43 25.3851 189.34 24.0299 189.914V189.934L36.1384 186.925L38.014 189.647L24.8352 198.86L23.2149 196.505H23.205Z" fill="white"/>
<path d="M27.6224 178.097L25.7173 174.524L13.7366 181.006L12.293 178.305L24.2737 171.823L23.8122 170.952L28.8303 168.24L30.1757 170.764L27.318 172.308L31.2167 179.631L17.0754 187.28L15.6319 184.579L27.6224 178.097Z" fill="white"/>
<path d="M4.99219 159.333L20.1744 154.107L21.1564 157.017L8.28199 161.44L9.58809 165.28L22.4527 160.847L23.4347 163.756L8.25253 168.971L4.99219 159.333Z" fill="white"/>
<path d="M3.38575 153.04L9.24847 151.744C11.1143 151.328 13.5007 150.893 14.8657 150.883V150.863L2.51175 149.012L1.80469 145.776L17.4779 142.303L18.0867 145.103L12.1651 146.42C9.77877 146.944 8.10932 147.251 6.63627 147.261V147.28L18.9706 149.131L19.6776 152.367L4.00443 155.841L3.39558 153.04H3.38575Z" fill="white"/>
<path d="M16.5169 134.136L16.8409 137.184L3.31838 138.649L3.72102 142.439L1.2954 142.706L0.15625 132.078L2.59168 131.82L2.99431 135.601L16.5169 134.136Z" fill="white"/>
<path d="M9.49622 123.877L2.05244 125.232L9.5355 126.588L9.4864 123.877H9.49622ZM0.0687421 127.281L0 123.164L15.9776 119.314L16.0365 122.63L11.8727 123.461L11.9317 126.934L16.1249 127.825L16.174 131.121L0.0687421 127.281Z" fill="white"/>
<path d="M6.60818 114.051L7.01082 110.023L0.863311 109.4L1.16774 106.342L17.1257 107.965L16.8213 111.023L9.43643 110.271L9.0338 114.298L16.4187 115.05L16.1142 118.098L0.15625 116.475L0.460679 113.427L6.60818 114.051Z" fill="white"/>
<path d="M2.32951 99.8986L8.20204 101.185C10.0679 101.591 12.4248 102.204 13.6621 102.769V102.749L3.20351 95.8709L3.90075 92.625L19.5936 96.0589L18.9847 98.8595L13.0533 97.5632C10.6669 97.0387 9.02695 96.6131 7.68157 95.9996V96.0194L18.1205 102.887L17.4233 106.133L1.73047 102.699L2.32951 99.8986Z" fill="white"/>
<path d="M9.40023 83.113L8.90922 84.5776C8.4182 86.0422 8.96814 87.0615 10.4019 87.5464C11.8553 88.0413 12.9257 87.586 13.4167 86.1214L13.9077 84.6568L9.40023 83.113ZM15.6754 86.8438L20.9784 91.5939L19.9178 94.7508L14.3889 89.5455C13.2105 90.8221 11.2661 91.1486 9.35113 90.4955C6.90588 89.6543 5.40337 87.5069 6.2381 85.0328L8.1236 79.4316L23.3254 84.637L22.3434 87.5464L16.1566 85.4287L15.6754 86.8537V86.8438Z" fill="white"/>
<path d="M21.3984 82.0731L22.4787 79.4902L25.3855 80.7371C26.4461 81.1924 27.379 82.657 26.8585 83.894L26.7898 84.0622L25.8274 83.6565C26.0238 83.1815 26.1711 82.3205 24.6588 81.6773L24.0205 83.2013L21.3984 82.083V82.0731Z" fill="white"/>
<path d="M27.2625 70.9899L28.1365 69.456C28.6962 68.4664 28.4212 67.556 26.8598 66.6554C25.4948 65.8637 24.2476 65.8934 23.678 66.8929L22.804 68.4268L27.2625 70.9899ZM18.0216 59.3323L20.0053 60.4802L17.2949 65.2601L20.673 67.1997L21.9399 64.9632C23.1772 62.786 26.1135 62.6178 28.0775 63.746C30.7585 65.2897 31.8387 67.5362 30.6406 69.6539L27.7338 74.79L13.7988 66.7643L18.0216 59.3125V59.3323Z" fill="white"/>
<path d="M22.1422 53.0774L26.9934 56.6301C28.5352 57.7582 30.4502 59.2723 31.3536 60.2916V60.2718L24.5384 49.7424L26.473 47.0605L39.4456 56.5608L37.7761 58.8765L32.866 55.2842C30.8921 53.8394 29.5664 52.7805 28.5745 51.6721V51.6919L35.3701 62.2115L33.4356 64.8933L20.4531 55.3931L22.1226 53.0774H22.1422Z" fill="white"/>
<path d="M34.3445 45.3406L39.1859 49.7938C40.4233 50.922 41.5428 51.0506 42.515 49.9719C43.3989 48.9922 43.2319 47.8443 41.9847 46.6963L37.1728 42.2728C35.906 41.1149 34.6588 40.9665 33.775 41.9363C32.8028 43.015 33.0777 44.1728 34.3347 45.3307L34.3445 45.3406ZM31.9779 40.2836C34.0598 37.9878 36.4854 37.394 39.51 40.1748L43.8113 44.1233C46.836 46.9041 46.4039 49.3287 44.322 51.6345C42.2695 53.9007 39.8046 54.6033 36.8094 51.8522L32.5081 47.8938C29.5228 45.1525 29.9254 42.54 31.9779 40.2738V40.2836Z" fill="white"/>
<path d="M53.4509 42.1736L51.1627 44.2023L42.1772 33.9202L39.3391 36.4338L37.7188 34.5932L45.6732 27.5273L47.2935 29.3779L44.4555 31.8915L53.4509 42.1736Z" fill="white"/>
<path d="M55.0525 20.6387L56.4764 22.6377L51.9787 25.8836L54.149 28.9415L58.2539 25.9826L59.6778 27.9816L55.573 30.9504L58.4798 35.0276L62.9775 31.7718L64.4014 33.7807L57.429 38.8079L48.0801 25.6758L55.0525 20.6387Z" fill="white"/>
<path d="M60.6343 17.185L65.0043 20.7377L64.3267 15.0771L67.3023 13.375L67.7049 22.1825L75.3353 27.378L72.3794 29.0603L67.4299 25.0425L68.2352 31.4255L65.3382 33.088L64.6312 23.9341L57.5605 18.9465L60.6343 17.185Z" fill="white"/>
<path d="M75.4978 16.4541L79.2001 14.8609L76.7843 9.13102L79.5831 7.93359L85.8681 22.8173L83.0693 24.0148L80.1527 17.137L76.4504 18.7203L79.3572 25.608L76.5584 26.8055L70.2734 11.9217L73.082 10.7243L75.4978 16.4541Z" fill="white"/>
<path d="M87.212 10.5252L89.0877 16.8587C89.5689 18.4717 90.4625 19.1546 91.8472 18.7389C93.1042 18.3629 93.5559 17.2941 93.0747 15.6612L91.2089 9.36732C90.7178 7.71467 89.726 6.94277 88.469 7.31882C87.0843 7.73446 86.721 8.87251 87.212 10.5252ZM87.7718 4.95366C90.7375 4.06301 93.114 4.82501 94.2826 8.77355L95.9521 14.4044C97.1207 18.353 95.5102 20.2134 92.5542 21.114C89.6376 21.9947 87.1629 21.3119 86.0041 17.403L84.3347 11.782C83.1759 7.87301 84.8551 5.8542 87.7718 4.97345V4.95366Z" fill="white"/>
<path d="M107.078 0.996094L109.828 16.9288L106.823 17.4533L104.486 3.94513L101.284 4.50921L102.345 10.625C103.268 15.9392 102.797 18.4627 100.273 18.8981C99.5757 19.0169 99.0159 19.0763 98.4169 19.0169L98.0339 16.7903C98.2401 16.82 98.6624 16.7903 99.0159 16.7309C99.9391 16.5726 100.224 16.0184 99.2222 10.2391L97.9062 2.59926L107.059 0.996094H107.078Z" fill="white"/>
<path d="M113.983 5.30047L114.366 11.9012C114.464 13.5736 115.181 14.4544 116.624 14.3653C117.93 14.2861 118.618 13.3559 118.519 11.6538L118.137 5.10255C118.038 3.38063 117.243 2.40092 115.937 2.47019C114.493 2.55925 113.884 3.57855 113.983 5.30047ZM115.789 0.0159556C118.873 -0.162174 121.014 1.12432 121.259 5.2312L121.603 11.0897C121.839 15.2065 119.855 16.6414 116.771 16.8294C113.727 17.0076 111.478 15.7705 111.243 11.7032L110.899 5.84476C110.663 1.77746 112.755 0.194085 115.789 0.0159556Z" fill="white"/>
<path d="M132.693 0.38152L132.595 2.83575L127.223 2.61804L126.673 16.3241L123.629 16.1955L124.277 0.0351562L132.693 0.38152Z" fill="white"/>
<path d="M138.597 1.06577L137.733 7.05291C137.458 8.96286 137.026 11.3577 136.544 12.6442H136.564L142.643 1.65953L145.893 2.13454L143.586 18.1365L140.767 17.7209L141.641 11.6744C141.995 9.23995 142.299 7.55761 142.82 6.17215H142.8L136.731 17.137L133.48 16.662L135.788 0.669922L138.607 1.08556L138.597 1.06577Z" fill="white"/>
<path d="M152.216 3.57801L150.694 9.42661C150.212 11.2871 149.505 13.6325 148.887 14.8596H148.906L156.173 4.627L159.355 5.46817L155.27 21.1139L152.52 20.3816L154.062 14.4637C154.681 12.0788 155.182 10.4459 155.849 9.11983H155.83L148.563 19.3326L145.381 18.4914L149.466 2.8457L152.216 3.57801Z" fill="white"/>
<path d="M170.951 9.84352L168.506 15.3655C167.73 17.1271 166.66 19.3141 165.855 20.4225H165.874L174.683 11.516L177.688 12.8618L171.157 27.6268L168.555 26.4591L171.02 20.8777C172.012 18.6313 172.758 17.0974 173.632 15.8999H173.613L164.814 24.7866L161.809 23.4408L168.339 8.67578L170.941 9.84352H170.951Z" fill="white"/>
<path d="M181.076 30.7553L182.549 31.7152C183.501 32.3387 184.415 32.1111 185.397 30.5871C186.261 29.2511 186.3 27.9943 185.348 27.3708L183.875 26.4109L181.076 30.7454V30.7553ZM193.165 22.1457L191.917 24.0754L187.341 21.067L185.22 24.3525L187.361 25.7578C189.443 27.1234 189.443 30.0923 188.205 32.0022C186.526 34.6148 184.228 35.5648 182.205 34.2387L177.285 31.0126L186.035 17.4648L193.165 22.1457Z" fill="white"/>
<path d="M203.507 30.1887L201.975 32.1085L197.664 28.6152L195.317 31.5445L199.255 34.731L197.723 36.6508L193.785 33.4643L190.662 37.3832L194.983 40.8765L193.451 42.7963L186.764 37.3733L196.82 24.7656L203.507 30.1887Z" fill="white"/>
<path d="M202.607 35.5942C204.571 33.5853 207.301 33.3082 209.461 35.4457C210.993 36.9697 212.162 39.5724 209.884 41.9079C208.715 43.1053 206.987 43.4319 205.681 42.6699C206.545 44.085 206.398 45.797 204.699 47.5388C202.44 49.8544 200.063 49.7555 197.795 47.5091C195.929 45.6585 194.996 43.036 197.412 40.562L199.513 42.6501C198.738 43.4517 198.286 44.5402 199.376 45.6288C200.417 46.6679 201.507 46.3215 202.676 45.134C204.001 43.7782 203.805 42.6105 202.901 41.71L202.44 41.2547L204.05 39.612L204.512 40.0672C205.317 40.8688 206.368 41.037 207.37 40.0177C208.116 39.2557 208.656 38.1276 207.743 37.2072C206.889 36.3562 205.73 36.653 204.718 37.6921L202.617 35.6041L202.607 35.5942Z" fill="white"/>
<path d="M213.308 47.199L208.231 51.3751C206.944 52.434 206.659 53.5325 207.573 54.6606C208.397 55.6799 209.556 55.6898 210.862 54.6111L215.9 50.4647C217.226 49.3761 217.56 48.149 216.725 47.1297C215.812 46.0015 214.633 46.1005 213.308 47.1891V47.199ZM218.62 45.576C220.575 47.9907 220.791 50.4944 217.629 53.097L213.121 56.8081C209.959 59.4108 207.632 58.6389 205.677 56.2242C203.753 53.8492 203.428 51.2861 206.561 48.7032L211.069 44.9921C214.201 42.4192 216.696 43.1911 218.62 45.576Z" fill="white"/>
<path d="M229.193 61.2027L215.7 69.9607L214.051 67.3878L225.481 59.9657L223.301 56.5515L211.871 63.9835L210.221 61.4006L223.714 52.6426L229.193 61.2027Z" fill="white"/>
<path d="M225.457 74.6334L231.605 70.19L224.259 72.199L225.457 74.6334ZM232.537 67.4785L234.354 71.1698L221.549 81.5607L220.085 78.5918L223.493 76.0386L221.961 72.9313L217.787 73.9407L216.334 70.9916L232.528 67.4884L232.537 67.4785Z" fill="white"/>
<path d="M234.293 84.9944L234.627 84.8757C236.522 84.1731 236.994 83.4506 236.552 82.2334C236.11 81.0162 235.275 80.7292 233.37 81.4318L227.429 83.6189C225.465 84.3413 225.003 85.0835 225.445 86.3007C225.867 87.4586 226.741 87.7752 228.676 87.0627L229.491 86.7658L230.532 89.6456L229.884 89.8831C227.154 90.8925 224.453 90.7639 223.147 87.1716C221.772 83.3913 223.805 81.6199 226.476 80.6303L231.966 78.6115C235.491 77.3151 237.721 78.3047 238.85 81.4318C239.92 84.371 238.85 86.5778 236.081 87.607L235.334 87.8841L234.293 85.0043V84.9944Z" fill="white"/>
<path d="M235.997 93.8207L236.959 97.7593L242.959 96.265L243.686 99.2537L228.101 103.113L227.375 100.134L234.583 98.3432L233.62 94.4046L226.412 96.1958L225.686 93.217L241.27 89.3477L241.997 92.3363L235.997 93.8207Z" fill="white"/>
<path d="M239.932 106.45L233.431 107.311C231.781 107.529 230.956 108.311 231.142 109.756C231.309 111.062 232.291 111.685 233.961 111.458L240.423 110.607C242.122 110.379 243.035 109.518 242.868 108.202C242.681 106.757 241.621 106.223 239.922 106.441L239.932 106.45ZM245.294 107.885C245.696 110.973 244.577 113.219 240.521 113.754L234.747 114.516C230.691 115.05 229.12 113.16 228.717 110.072C228.324 107.024 229.385 104.679 233.401 104.145L239.175 103.383C243.192 102.858 244.901 104.847 245.294 107.885Z" fill="white"/>
<path d="M240.823 123.331H241.176C243.199 123.281 243.877 122.747 243.847 121.45C243.818 120.154 243.121 119.61 241.098 119.649L234.764 119.788C232.672 119.837 231.994 120.382 232.024 121.688C232.053 122.915 232.77 123.509 234.842 123.459L235.706 123.44L235.775 126.507H235.088C232.181 126.587 229.667 125.587 229.588 121.757C229.5 117.73 231.994 116.71 234.832 116.651L240.675 116.522C244.427 116.443 246.224 118.106 246.293 121.441C246.361 124.578 244.643 126.309 241.687 126.379L240.891 126.399L240.823 123.331Z" fill="white"/>
<path d="M229.482 134.732L229.738 131.674L243.3 132.822L243.624 129.021L246.059 129.229L245.165 139.878L242.73 139.68L243.044 135.879L229.482 134.732Z" fill="white"/>
<path d="M244.181 145.777L238.289 144.619C236.414 144.253 234.057 143.689 232.8 143.145V143.165L243.396 149.815L242.767 153.071L227.016 149.963L227.566 147.153L233.526 148.33C235.923 148.805 237.572 149.201 238.928 149.785V149.765L228.351 143.115L228.98 139.859L244.731 142.967L244.181 145.777Z" fill="white"/>
<path d="M236.652 171.883L221.607 166.272L222.668 163.393L235.415 168.153L236.809 164.353L224.062 159.593L225.123 156.723L240.158 162.334L236.652 171.883Z" fill="white"/>
<path d="M233.905 177.829L228.543 175.098C226.834 174.227 224.713 173.049 223.653 172.178V172.198L232.049 181.511L230.566 184.469L216.238 177.166L217.525 174.603L222.946 177.364C225.126 178.482 226.608 179.304 227.757 180.244V180.224L219.381 170.932L220.864 167.973L235.191 175.276L233.905 177.839V177.829Z" fill="white"/>
<path d="M215.817 182.698L213.951 185.42L225.117 193.228L223.389 195.751L212.213 187.943L210.337 190.665L221.513 198.473L219.775 200.996L208.599 193.188L208.049 193.99L203.395 190.744L205.015 188.389L207.657 190.239L215.542 178.77L228.731 187.983L226.993 190.506L215.817 182.698Z" fill="white"/>
<path d="M214.869 206.538L210.469 202.431C209.065 201.125 207.346 199.403 206.571 198.274V198.294L212.099 209.566L209.86 212L198.086 201.016L200.021 198.908L204.469 203.064C206.266 204.737 207.454 205.944 208.309 207.161L208.328 207.141L202.8 195.89L205.039 193.455L216.813 204.44L214.879 206.538H214.869Z" fill="white"/>
</svg>
