<svg width="27" height="27" viewBox="0 0 27 27" fill="none" xmlns="http://www.w3.org/2000/svg">
<path fill-rule="evenodd" clip-rule="evenodd" d="M15.544 13.0363L25.5408 3.04053C26.2405 2.3408 26.2363 1.21973 25.5408 0.523201C24.8443 -0.176532 23.7232 -0.167999 23.0277 0.523201L13.032 10.5189L3.03626 0.523201C2.33653 -0.176532 1.21547 -0.172265 0.523201 0.523201C-0.176532 1.224 -0.172265 2.344 0.523201 3.04053L10.52 13.0363L0.523201 23.0277C-0.176532 23.7275 -0.172265 24.8485 0.523201 25.544C1.21973 26.2448 2.3408 26.2405 3.03626 25.544L13.032 15.5483L23.0277 25.544C23.7275 26.2448 24.8485 26.2405 25.5408 25.544C26.2405 24.8443 26.2363 23.7232 25.5408 23.0277L15.544 13.0363Z" fill="black"/>
</svg>
