<svg width="22" height="23" viewBox="0 0 22 23"  xmlns="http://www.w3.org/2000/svg">
<path d="M8.84461 0.5C10.5258 0.499815 12.1722 0.978718 13.591 1.88061C15.0098 2.78249 16.1422 4.07002 16.8556 5.59234C17.5689 7.11467 17.8337 8.80876 17.6188 10.4761C17.404 12.1435 16.7184 13.7152 15.6425 15.0069L21.7434 21.1078C21.8492 21.2061 21.9266 21.3311 21.9674 21.4697C22.0081 21.6083 22.0108 21.7553 21.975 21.8952C21.9392 22.0352 21.8663 22.1629 21.764 22.2649C21.6618 22.3669 21.5339 22.4394 21.3938 22.4749C21.254 22.5107 21.1072 22.5082 20.9687 22.4676C20.8302 22.427 20.7052 22.3499 20.6068 22.2443L14.5059 16.1435C13.4142 17.0525 12.1197 17.6851 10.7317 17.988C9.34382 18.2909 7.90337 18.255 6.53223 17.8835C5.1611 17.5119 3.89961 16.8157 2.85449 15.8535C1.80936 14.8913 1.01134 13.6916 0.527925 12.3558C0.0445098 11.02 -0.110078 9.58748 0.0772388 8.17931C0.264555 6.77115 0.788266 5.42881 1.60407 4.26584C2.41987 3.10287 3.50377 2.15349 4.76408 1.498C6.02439 0.842506 7.42403 0.500188 8.84461 0.5ZM1.60716 9.3457C1.60716 10.2961 1.79436 11.2372 2.15808 12.1153C2.52179 12.9934 3.0549 13.7912 3.72696 14.4633C4.39902 15.1354 5.19687 15.6685 6.07496 16.0322C6.95305 16.3959 7.89418 16.5831 8.84461 16.5831C9.79505 16.5831 10.7362 16.3959 11.6143 16.0322C12.4924 15.6685 13.2902 15.1354 13.9623 14.4633C14.6343 13.7912 15.1674 12.9934 15.5312 12.1153C15.8949 11.2372 16.0821 10.2961 16.0821 9.3457C16.0821 7.42622 15.3196 5.58536 13.9623 4.22809C12.605 2.87082 10.7641 2.10831 8.84461 2.10831C6.92512 2.10831 5.08425 2.87082 3.72696 4.22809C2.36967 5.58536 1.60716 7.42622 1.60716 9.3457Z" />
</svg>
