<svg width="32" height="32" viewBox="0 0 32 32" fill="none" xmlns="http://www.w3.org/2000/svg">
<path d="M28.4424 3.22071C28.4424 3.22071 31.2176 2.13856 30.9863 4.76663C30.9092 5.84879 30.2154 9.63629 29.6758 13.733L27.8257 25.8685C27.8257 25.8685 27.6715 27.6463 26.2839 27.9555C24.8962 28.2647 22.8149 26.8734 22.4294 26.5642C22.121 26.3323 16.6477 22.8539 14.7204 21.1534C14.1808 20.6897 13.5641 19.7621 14.7975 18.6799L22.8919 10.9504C23.817 10.0228 24.7421 7.8585 20.8876 10.4866L10.0951 17.8297C10.0951 17.8297 8.86165 18.6027 6.549 17.907L1.53816 16.3611C1.53816 16.3611 -0.311993 15.2016 2.84868 14.0421C10.5576 10.4092 20.0397 6.699 28.4424 3.22071Z" fill="white"/>
</svg>
